%TF.GenerationSoftware,KiCad,Pcbnew,5.1.10-88a1d61d58~90~ubuntu20.04.1*%
%TF.CreationDate,2022-04-06T20:45:46+02:00*%
%TF.ProjectId,AlarmClock-encoder,416c6172-6d43-46c6-9f63-6b2d656e636f,rev?*%
%TF.SameCoordinates,PX791ddc0PY6d01460*%
%TF.FileFunction,Copper,L2,Bot*%
%TF.FilePolarity,Positive*%
%FSLAX46Y46*%
G04 Gerber Fmt 4.6, Leading zero omitted, Abs format (unit mm)*
G04 Created by KiCad (PCBNEW 5.1.10-88a1d61d58~90~ubuntu20.04.1) date 2022-04-06 20:45:46*
%MOMM*%
%LPD*%
G01*
G04 APERTURE LIST*
%TA.AperFunction,ComponentPad*%
%ADD10R,2.000000X2.000000*%
%TD*%
%TA.AperFunction,ComponentPad*%
%ADD11C,2.000000*%
%TD*%
%TA.AperFunction,ComponentPad*%
%ADD12R,3.000000X2.500000*%
%TD*%
%TA.AperFunction,ComponentPad*%
%ADD13O,1.700000X1.700000*%
%TD*%
%TA.AperFunction,ComponentPad*%
%ADD14R,1.700000X1.700000*%
%TD*%
%TA.AperFunction,Conductor*%
%ADD15C,1.000000*%
%TD*%
G04 APERTURE END LIST*
D10*
%TO.P,SW1,A*%
%TO.N,/A*%
X3810000Y17780000D03*
D11*
%TO.P,SW1,C*%
%TO.N,/C*%
X3810000Y15280000D03*
%TO.P,SW1,B*%
%TO.N,/B*%
X3810000Y12780000D03*
D12*
%TO.P,SW1,MP*%
%TO.N,N/C*%
X11310000Y20880000D03*
X11310000Y9680000D03*
D11*
%TO.P,SW1,S1*%
%TO.N,/S1*%
X18310000Y17780000D03*
%TO.P,SW1,S2*%
%TO.N,/S2*%
X18310000Y12780000D03*
%TD*%
D13*
%TO.P,J1,5*%
%TO.N,/S2*%
X22860000Y10160000D03*
%TO.P,J1,4*%
%TO.N,/S1*%
X22860000Y12700000D03*
%TO.P,J1,3*%
%TO.N,/B*%
X22860000Y15240000D03*
%TO.P,J1,2*%
%TO.N,/C*%
X22860000Y17780000D03*
D14*
%TO.P,J1,1*%
%TO.N,/A*%
X22860000Y20320000D03*
%TD*%
D15*
%TO.N,/S2*%
X20930000Y10160000D02*
X18310000Y12780000D01*
X22860000Y10160000D02*
X20930000Y10160000D01*
%TO.N,/S1*%
X18310000Y17250000D02*
X18310000Y17780000D01*
X22860000Y12700000D02*
X18310000Y17250000D01*
%TO.N,/B*%
X3810000Y12780000D02*
X13890000Y12780000D01*
X13890000Y12780000D02*
X19050000Y7620000D01*
X19050000Y7620000D02*
X24130000Y7620000D01*
X24130000Y7620000D02*
X25400000Y8890000D01*
X25400000Y8890000D02*
X25400000Y13970000D01*
X24130000Y15240000D02*
X22860000Y15240000D01*
X25400000Y13970000D02*
X24130000Y15240000D01*
%TO.N,/C*%
X21657919Y17780000D02*
X22860000Y17780000D01*
X19117919Y20320000D02*
X21657919Y17780000D01*
X16510000Y20320000D02*
X19117919Y20320000D01*
X11470000Y15280000D02*
X16510000Y20320000D01*
X3810000Y15280000D02*
X11470000Y15280000D01*
%TO.N,/A*%
X3810000Y17780000D02*
X3810000Y19050000D01*
X20149999Y23030001D02*
X22860000Y20320000D01*
X7790001Y23030001D02*
X20149999Y23030001D01*
X3810000Y19050000D02*
X7790001Y23030001D01*
%TD*%
M02*
