%TF.GenerationSoftware,KiCad,Pcbnew,5.1.10-88a1d61d58~90~ubuntu20.04.1*%
%TF.CreationDate,2022-03-31T17:04:07+02:00*%
%TF.ProjectId,AlarmClock,416c6172-6d43-46c6-9f63-6b2e6b696361,rev?*%
%TF.SameCoordinates,PX8eeaea0PY6a95280*%
%TF.FileFunction,Copper,L2,Bot*%
%TF.FilePolarity,Positive*%
%FSLAX46Y46*%
G04 Gerber Fmt 4.6, Leading zero omitted, Abs format (unit mm)*
G04 Created by KiCad (PCBNEW 5.1.10-88a1d61d58~90~ubuntu20.04.1) date 2022-03-31 17:04:07*
%MOMM*%
%LPD*%
G01*
G04 APERTURE LIST*
%TA.AperFunction,EtchedComponent*%
%ADD10C,0.100000*%
%TD*%
%TA.AperFunction,SMDPad,CuDef*%
%ADD11R,3.500000X1.800000*%
%TD*%
%TA.AperFunction,ComponentPad*%
%ADD12O,1.740000X2.190000*%
%TD*%
%TA.AperFunction,SMDPad,CuDef*%
%ADD13R,0.900000X1.200000*%
%TD*%
%TA.AperFunction,SMDPad,CuDef*%
%ADD14R,1.800000X3.500000*%
%TD*%
%TA.AperFunction,ComponentPad*%
%ADD15C,1.500000*%
%TD*%
%TA.AperFunction,ComponentPad*%
%ADD16O,1.600000X1.600000*%
%TD*%
%TA.AperFunction,ComponentPad*%
%ADD17R,1.600000X1.600000*%
%TD*%
%TA.AperFunction,ComponentPad*%
%ADD18C,2.000000*%
%TD*%
%TA.AperFunction,ComponentPad*%
%ADD19O,2.190000X1.740000*%
%TD*%
%TA.AperFunction,SMDPad,CuDef*%
%ADD20R,0.900000X0.800000*%
%TD*%
%TA.AperFunction,SMDPad,CuDef*%
%ADD21R,1.500000X2.000000*%
%TD*%
%TA.AperFunction,SMDPad,CuDef*%
%ADD22R,3.800000X2.000000*%
%TD*%
%TA.AperFunction,SMDPad,CuDef*%
%ADD23R,2.000000X1.500000*%
%TD*%
%TA.AperFunction,SMDPad,CuDef*%
%ADD24R,2.000000X3.800000*%
%TD*%
%TA.AperFunction,SMDPad,CuDef*%
%ADD25R,0.800000X0.900000*%
%TD*%
%TA.AperFunction,ComponentPad*%
%ADD26C,2.600000*%
%TD*%
%TA.AperFunction,SMDPad,CuDef*%
%ADD27R,1.500000X1.000000*%
%TD*%
%TA.AperFunction,SMDPad,CuDef*%
%ADD28R,1.000000X1.500000*%
%TD*%
%TA.AperFunction,ComponentPad*%
%ADD29C,1.700000*%
%TD*%
%TA.AperFunction,ComponentPad*%
%ADD30R,3.500000X3.500000*%
%TD*%
%TA.AperFunction,SMDPad,CuDef*%
%ADD31R,1.200000X0.900000*%
%TD*%
%TA.AperFunction,ComponentPad*%
%ADD32C,1.600000*%
%TD*%
%TA.AperFunction,ComponentPad*%
%ADD33R,2.000000X2.000000*%
%TD*%
%TA.AperFunction,ComponentPad*%
%ADD34C,2.100000*%
%TD*%
%TA.AperFunction,ComponentPad*%
%ADD35R,2.100000X2.100000*%
%TD*%
%TA.AperFunction,ViaPad*%
%ADD36C,1.800000*%
%TD*%
%TA.AperFunction,Conductor*%
%ADD37C,1.000000*%
%TD*%
%TA.AperFunction,Conductor*%
%ADD38C,1.500000*%
%TD*%
%TA.AperFunction,Conductor*%
%ADD39C,0.800000*%
%TD*%
G04 APERTURE END LIST*
D10*
%TO.C,JP2*%
G36*
X18750000Y33920000D02*
G01*
X18750000Y33420000D01*
X19350000Y33420000D01*
X19350000Y33920000D01*
X18750000Y33920000D01*
G37*
%TO.C,JP1*%
G36*
X27070000Y-20620000D02*
G01*
X27570000Y-20620000D01*
X27570000Y-20020000D01*
X27070000Y-20020000D01*
X27070000Y-20620000D01*
G37*
%TD*%
%TO.P,R27,2*%
%TO.N,Net-(D6-Pad1)*%
%TA.AperFunction,SMDPad,CuDef*%
G36*
G01*
X31125000Y19420000D02*
X32375000Y19420000D01*
G75*
G02*
X32625000Y19170000I0J-250000D01*
G01*
X32625000Y18370000D01*
G75*
G02*
X32375000Y18120000I-250000J0D01*
G01*
X31125000Y18120000D01*
G75*
G02*
X30875000Y18370000I0J250000D01*
G01*
X30875000Y19170000D01*
G75*
G02*
X31125000Y19420000I250000J0D01*
G01*
G37*
%TD.AperFunction*%
%TO.P,R27,1*%
%TO.N,+5V*%
%TA.AperFunction,SMDPad,CuDef*%
G36*
G01*
X31125000Y22520000D02*
X32375000Y22520000D01*
G75*
G02*
X32625000Y22270000I0J-250000D01*
G01*
X32625000Y21470000D01*
G75*
G02*
X32375000Y21220000I-250000J0D01*
G01*
X31125000Y21220000D01*
G75*
G02*
X30875000Y21470000I0J250000D01*
G01*
X30875000Y22270000D01*
G75*
G02*
X31125000Y22520000I250000J0D01*
G01*
G37*
%TD.AperFunction*%
%TD*%
D11*
%TO.P,D9,1*%
%TO.N,+5V*%
X-26035000Y27940000D03*
%TO.P,D9,2*%
%TO.N,GND*%
X-21035000Y27940000D03*
%TD*%
%TO.P,JP7,2*%
%TO.N,+5V*%
%TA.AperFunction,SMDPad,CuDef*%
G36*
G01*
X-9534999Y-9260000D02*
X-10785001Y-9260000D01*
G75*
G02*
X-11035000Y-9010001I0J249999D01*
G01*
X-11035000Y-8209999D01*
G75*
G02*
X-10785001Y-7960000I249999J0D01*
G01*
X-9534999Y-7960000D01*
G75*
G02*
X-9285000Y-8209999I0J-249999D01*
G01*
X-9285000Y-9010001D01*
G75*
G02*
X-9534999Y-9260000I-249999J0D01*
G01*
G37*
%TD.AperFunction*%
%TO.P,JP7,1*%
%TA.AperFunction,SMDPad,CuDef*%
G36*
G01*
X-9534999Y-12360000D02*
X-10785001Y-12360000D01*
G75*
G02*
X-11035000Y-12110001I0J249999D01*
G01*
X-11035000Y-11309999D01*
G75*
G02*
X-10785001Y-11060000I249999J0D01*
G01*
X-9534999Y-11060000D01*
G75*
G02*
X-9285000Y-11309999I0J-249999D01*
G01*
X-9285000Y-12110001D01*
G75*
G02*
X-9534999Y-12360000I-249999J0D01*
G01*
G37*
%TD.AperFunction*%
%TD*%
%TO.P,JP6,2*%
%TO.N,Net-(J2-Pad3)*%
%TA.AperFunction,SMDPad,CuDef*%
G36*
G01*
X4454999Y9260000D02*
X5705001Y9260000D01*
G75*
G02*
X5955000Y9010001I0J-249999D01*
G01*
X5955000Y8209999D01*
G75*
G02*
X5705001Y7960000I-249999J0D01*
G01*
X4454999Y7960000D01*
G75*
G02*
X4205000Y8209999I0J249999D01*
G01*
X4205000Y9010001D01*
G75*
G02*
X4454999Y9260000I249999J0D01*
G01*
G37*
%TD.AperFunction*%
%TO.P,JP6,1*%
%TO.N,GND*%
%TA.AperFunction,SMDPad,CuDef*%
G36*
G01*
X4454999Y12360000D02*
X5705001Y12360000D01*
G75*
G02*
X5955000Y12110001I0J-249999D01*
G01*
X5955000Y11309999D01*
G75*
G02*
X5705001Y11060000I-249999J0D01*
G01*
X4454999Y11060000D01*
G75*
G02*
X4205000Y11309999I0J249999D01*
G01*
X4205000Y12110001D01*
G75*
G02*
X4454999Y12360000I249999J0D01*
G01*
G37*
%TD.AperFunction*%
%TD*%
%TO.P,JP5,1*%
%TO.N,Net-(J4-Pad4)*%
%TA.AperFunction,SMDPad,CuDef*%
G36*
G01*
X9185000Y-19694999D02*
X9185000Y-20945001D01*
G75*
G02*
X8935001Y-21195000I-249999J0D01*
G01*
X8134999Y-21195000D01*
G75*
G02*
X7885000Y-20945001I0J249999D01*
G01*
X7885000Y-19694999D01*
G75*
G02*
X8134999Y-19445000I249999J0D01*
G01*
X8935001Y-19445000D01*
G75*
G02*
X9185000Y-19694999I0J-249999D01*
G01*
G37*
%TD.AperFunction*%
%TO.P,JP5,2*%
%TO.N,/MOSI*%
%TA.AperFunction,SMDPad,CuDef*%
G36*
G01*
X6085000Y-19694999D02*
X6085000Y-20945001D01*
G75*
G02*
X5835001Y-21195000I-249999J0D01*
G01*
X5034999Y-21195000D01*
G75*
G02*
X4785000Y-20945001I0J249999D01*
G01*
X4785000Y-19694999D01*
G75*
G02*
X5034999Y-19445000I249999J0D01*
G01*
X5835001Y-19445000D01*
G75*
G02*
X6085000Y-19694999I0J-249999D01*
G01*
G37*
%TD.AperFunction*%
%TD*%
%TO.P,R26,2*%
%TO.N,Net-(R26-Pad2)*%
%TA.AperFunction,SMDPad,CuDef*%
G36*
G01*
X20964999Y-27570000D02*
X22215001Y-27570000D01*
G75*
G02*
X22465000Y-27819999I0J-249999D01*
G01*
X22465000Y-28620001D01*
G75*
G02*
X22215001Y-28870000I-249999J0D01*
G01*
X20964999Y-28870000D01*
G75*
G02*
X20715000Y-28620001I0J249999D01*
G01*
X20715000Y-27819999D01*
G75*
G02*
X20964999Y-27570000I249999J0D01*
G01*
G37*
%TD.AperFunction*%
%TO.P,R26,1*%
%TO.N,/enc_sw*%
%TA.AperFunction,SMDPad,CuDef*%
G36*
G01*
X20964999Y-24470000D02*
X22215001Y-24470000D01*
G75*
G02*
X22465000Y-24719999I0J-249999D01*
G01*
X22465000Y-25520001D01*
G75*
G02*
X22215001Y-25770000I-249999J0D01*
G01*
X20964999Y-25770000D01*
G75*
G02*
X20715000Y-25520001I0J249999D01*
G01*
X20715000Y-24719999D01*
G75*
G02*
X20964999Y-24470000I249999J0D01*
G01*
G37*
%TD.AperFunction*%
%TD*%
D12*
%TO.P,SW3,S2*%
%TO.N,GND*%
X19050000Y-30480000D03*
%TO.P,SW3,S1*%
%TO.N,Net-(R26-Pad2)*%
X21590000Y-30480000D03*
%TO.P,SW3,B*%
%TO.N,Net-(R25-Pad1)*%
X24130000Y-30480000D03*
%TO.P,SW3,C*%
%TO.N,GND*%
X26670000Y-30480000D03*
%TO.P,SW3,A*%
%TO.N,Net-(R24-Pad1)*%
%TA.AperFunction,ComponentPad*%
G36*
G01*
X30080000Y-29635558D02*
X30080000Y-31324442D01*
G75*
G02*
X29829442Y-31575000I-250558J0D01*
G01*
X28590558Y-31575000D01*
G75*
G02*
X28340000Y-31324442I0J250558D01*
G01*
X28340000Y-29635558D01*
G75*
G02*
X28590558Y-29385000I250558J0D01*
G01*
X29829442Y-29385000D01*
G75*
G02*
X30080000Y-29635558I0J-250558D01*
G01*
G37*
%TD.AperFunction*%
%TD*%
%TO.P,R25,2*%
%TO.N,/enc_clk*%
%TA.AperFunction,SMDPad,CuDef*%
G36*
G01*
X11800000Y-31124999D02*
X11800000Y-32375001D01*
G75*
G02*
X11550001Y-32625000I-249999J0D01*
G01*
X10749999Y-32625000D01*
G75*
G02*
X10500000Y-32375001I0J249999D01*
G01*
X10500000Y-31124999D01*
G75*
G02*
X10749999Y-30875000I249999J0D01*
G01*
X11550001Y-30875000D01*
G75*
G02*
X11800000Y-31124999I0J-249999D01*
G01*
G37*
%TD.AperFunction*%
%TO.P,R25,1*%
%TO.N,Net-(R25-Pad1)*%
%TA.AperFunction,SMDPad,CuDef*%
G36*
G01*
X14900000Y-31124999D02*
X14900000Y-32375001D01*
G75*
G02*
X14650001Y-32625000I-249999J0D01*
G01*
X13849999Y-32625000D01*
G75*
G02*
X13600000Y-32375001I0J249999D01*
G01*
X13600000Y-31124999D01*
G75*
G02*
X13849999Y-30875000I249999J0D01*
G01*
X14650001Y-30875000D01*
G75*
G02*
X14900000Y-31124999I0J-249999D01*
G01*
G37*
%TD.AperFunction*%
%TD*%
%TO.P,R24,2*%
%TO.N,/enc_dt*%
%TA.AperFunction,SMDPad,CuDef*%
G36*
G01*
X28584999Y-35190000D02*
X29835001Y-35190000D01*
G75*
G02*
X30085000Y-35439999I0J-249999D01*
G01*
X30085000Y-36240001D01*
G75*
G02*
X29835001Y-36490000I-249999J0D01*
G01*
X28584999Y-36490000D01*
G75*
G02*
X28335000Y-36240001I0J249999D01*
G01*
X28335000Y-35439999D01*
G75*
G02*
X28584999Y-35190000I249999J0D01*
G01*
G37*
%TD.AperFunction*%
%TO.P,R24,1*%
%TO.N,Net-(R24-Pad1)*%
%TA.AperFunction,SMDPad,CuDef*%
G36*
G01*
X28584999Y-32090000D02*
X29835001Y-32090000D01*
G75*
G02*
X30085000Y-32339999I0J-249999D01*
G01*
X30085000Y-33140001D01*
G75*
G02*
X29835001Y-33390000I-249999J0D01*
G01*
X28584999Y-33390000D01*
G75*
G02*
X28335000Y-33140001I0J249999D01*
G01*
X28335000Y-32339999D01*
G75*
G02*
X28584999Y-32090000I249999J0D01*
G01*
G37*
%TD.AperFunction*%
%TD*%
%TO.P,C2,2*%
%TO.N,GND*%
%TA.AperFunction,SMDPad,CuDef*%
G36*
G01*
X13600000Y-29860002D02*
X13600000Y-28559998D01*
G75*
G02*
X13849998Y-28310000I249998J0D01*
G01*
X14675002Y-28310000D01*
G75*
G02*
X14925000Y-28559998I0J-249998D01*
G01*
X14925000Y-29860002D01*
G75*
G02*
X14675002Y-30110000I-249998J0D01*
G01*
X13849998Y-30110000D01*
G75*
G02*
X13600000Y-29860002I0J249998D01*
G01*
G37*
%TD.AperFunction*%
%TO.P,C2,1*%
%TO.N,/enc_clk*%
%TA.AperFunction,SMDPad,CuDef*%
G36*
G01*
X10475000Y-29860002D02*
X10475000Y-28559998D01*
G75*
G02*
X10724998Y-28310000I249998J0D01*
G01*
X11550002Y-28310000D01*
G75*
G02*
X11800000Y-28559998I0J-249998D01*
G01*
X11800000Y-29860002D01*
G75*
G02*
X11550002Y-30110000I-249998J0D01*
G01*
X10724998Y-30110000D01*
G75*
G02*
X10475000Y-29860002I0J249998D01*
G01*
G37*
%TD.AperFunction*%
%TD*%
%TO.P,C1,2*%
%TO.N,GND*%
%TA.AperFunction,SMDPad,CuDef*%
G36*
G01*
X13600000Y-27320002D02*
X13600000Y-26019998D01*
G75*
G02*
X13849998Y-25770000I249998J0D01*
G01*
X14675002Y-25770000D01*
G75*
G02*
X14925000Y-26019998I0J-249998D01*
G01*
X14925000Y-27320002D01*
G75*
G02*
X14675002Y-27570000I-249998J0D01*
G01*
X13849998Y-27570000D01*
G75*
G02*
X13600000Y-27320002I0J249998D01*
G01*
G37*
%TD.AperFunction*%
%TO.P,C1,1*%
%TO.N,/enc_dt*%
%TA.AperFunction,SMDPad,CuDef*%
G36*
G01*
X10475000Y-27320002D02*
X10475000Y-26019998D01*
G75*
G02*
X10724998Y-25770000I249998J0D01*
G01*
X11550002Y-25770000D01*
G75*
G02*
X11800000Y-26019998I0J-249998D01*
G01*
X11800000Y-27320002D01*
G75*
G02*
X11550002Y-27570000I-249998J0D01*
G01*
X10724998Y-27570000D01*
G75*
G02*
X10475000Y-27320002I0J249998D01*
G01*
G37*
%TD.AperFunction*%
%TD*%
%TO.P,JP4,2*%
%TO.N,Net-(JP4-Pad2)*%
%TA.AperFunction,SMDPad,CuDef*%
G36*
G01*
X10804999Y5450000D02*
X12055001Y5450000D01*
G75*
G02*
X12305000Y5200001I0J-249999D01*
G01*
X12305000Y4399999D01*
G75*
G02*
X12055001Y4150000I-249999J0D01*
G01*
X10804999Y4150000D01*
G75*
G02*
X10555000Y4399999I0J249999D01*
G01*
X10555000Y5200001D01*
G75*
G02*
X10804999Y5450000I249999J0D01*
G01*
G37*
%TD.AperFunction*%
%TO.P,JP4,1*%
%TO.N,/SCL*%
%TA.AperFunction,SMDPad,CuDef*%
G36*
G01*
X10804999Y8550000D02*
X12055001Y8550000D01*
G75*
G02*
X12305000Y8300001I0J-249999D01*
G01*
X12305000Y7499999D01*
G75*
G02*
X12055001Y7250000I-249999J0D01*
G01*
X10804999Y7250000D01*
G75*
G02*
X10555000Y7499999I0J249999D01*
G01*
X10555000Y8300001D01*
G75*
G02*
X10804999Y8550000I249999J0D01*
G01*
G37*
%TD.AperFunction*%
%TD*%
%TO.P,JP3,2*%
%TO.N,Net-(JP3-Pad2)*%
%TA.AperFunction,SMDPad,CuDef*%
G36*
G01*
X-4454999Y25030000D02*
X-5705001Y25030000D01*
G75*
G02*
X-5955000Y25279999I0J249999D01*
G01*
X-5955000Y26080001D01*
G75*
G02*
X-5705001Y26330000I249999J0D01*
G01*
X-4454999Y26330000D01*
G75*
G02*
X-4205000Y26080001I0J-249999D01*
G01*
X-4205000Y25279999D01*
G75*
G02*
X-4454999Y25030000I-249999J0D01*
G01*
G37*
%TD.AperFunction*%
%TO.P,JP3,1*%
%TO.N,Net-(JP3-Pad1)*%
%TA.AperFunction,SMDPad,CuDef*%
G36*
G01*
X-4454999Y21930000D02*
X-5705001Y21930000D01*
G75*
G02*
X-5955000Y22179999I0J249999D01*
G01*
X-5955000Y22980001D01*
G75*
G02*
X-5705001Y23230000I249999J0D01*
G01*
X-4454999Y23230000D01*
G75*
G02*
X-4205000Y22980001I0J-249999D01*
G01*
X-4205000Y22179999D01*
G75*
G02*
X-4454999Y21930000I-249999J0D01*
G01*
G37*
%TD.AperFunction*%
%TD*%
%TO.P,R10,2*%
%TO.N,Net-(D1-Pad1)*%
%TA.AperFunction,SMDPad,CuDef*%
G36*
G01*
X34934999Y-11695000D02*
X36185001Y-11695000D01*
G75*
G02*
X36435000Y-11944999I0J-249999D01*
G01*
X36435000Y-12745001D01*
G75*
G02*
X36185001Y-12995000I-249999J0D01*
G01*
X34934999Y-12995000D01*
G75*
G02*
X34685000Y-12745001I0J249999D01*
G01*
X34685000Y-11944999D01*
G75*
G02*
X34934999Y-11695000I249999J0D01*
G01*
G37*
%TD.AperFunction*%
%TO.P,R10,1*%
%TO.N,Net-(Q3-Pad3)*%
%TA.AperFunction,SMDPad,CuDef*%
G36*
G01*
X34934999Y-8595000D02*
X36185001Y-8595000D01*
G75*
G02*
X36435000Y-8844999I0J-249999D01*
G01*
X36435000Y-9645001D01*
G75*
G02*
X36185001Y-9895000I-249999J0D01*
G01*
X34934999Y-9895000D01*
G75*
G02*
X34685000Y-9645001I0J249999D01*
G01*
X34685000Y-8844999D01*
G75*
G02*
X34934999Y-8595000I249999J0D01*
G01*
G37*
%TD.AperFunction*%
%TD*%
D13*
%TO.P,D1,2*%
%TO.N,/buzzer*%
X29720000Y-22860000D03*
%TO.P,D1,1*%
%TO.N,Net-(D1-Pad1)*%
X33020000Y-22860000D03*
%TD*%
D14*
%TO.P,D4,2*%
%TO.N,Net-(D4-Pad2)*%
X20320000Y-21510000D03*
%TO.P,D4,1*%
%TO.N,Net-(D4-Pad1)*%
X20320000Y-16510000D03*
%TD*%
%TO.P,D3,2*%
%TO.N,Net-(D3-Pad2)*%
X-27305000Y-25440000D03*
%TO.P,D3,1*%
%TO.N,Net-(D3-Pad1)*%
X-27305000Y-30440000D03*
%TD*%
D15*
%TO.P,Y1,2*%
%TO.N,Net-(C11-Pad1)*%
X-17780000Y-16310000D03*
%TO.P,Y1,1*%
%TO.N,Net-(C10-Pad2)*%
X-17780000Y-11430000D03*
%TD*%
D16*
%TO.P,U2,28*%
%TO.N,/SCL*%
X-5080000Y7620000D03*
%TO.P,U2,14*%
%TO.N,Net-(U2-Pad14)*%
X-12700000Y-25400000D03*
%TO.P,U2,27*%
%TO.N,/SDA*%
X-5080000Y5080000D03*
%TO.P,U2,13*%
%TO.N,/LCD_BLU*%
X-12700000Y-22860000D03*
%TO.P,U2,26*%
%TO.N,/buzzer*%
X-5080000Y2540000D03*
%TO.P,U2,12*%
%TO.N,/ambient*%
X-12700000Y-20320000D03*
%TO.P,U2,25*%
%TO.N,/enc_sw*%
X-5080000Y0D03*
%TO.P,U2,11*%
%TO.N,/BTN_stop*%
X-12700000Y-17780000D03*
%TO.P,U2,24*%
%TO.N,Net-(U2-Pad24)*%
X-5080000Y-2540000D03*
%TO.P,U2,10*%
%TO.N,Net-(C11-Pad1)*%
X-12700000Y-15240000D03*
%TO.P,U2,23*%
%TO.N,Net-(U2-Pad23)*%
X-5080000Y-5080000D03*
%TO.P,U2,9*%
%TO.N,Net-(C10-Pad2)*%
X-12700000Y-12700000D03*
%TO.P,U2,22*%
%TO.N,GND*%
X-5080000Y-7620000D03*
%TO.P,U2,8*%
X-12700000Y-10160000D03*
%TO.P,U2,21*%
%TO.N,Net-(U2-Pad21)*%
X-5080000Y-10160000D03*
%TO.P,U2,7*%
%TO.N,+5V*%
X-12700000Y-7620000D03*
%TO.P,U2,20*%
X-5080000Y-12700000D03*
%TO.P,U2,6*%
%TO.N,/BTN_snooze*%
X-12700000Y-5080000D03*
%TO.P,U2,19*%
%TO.N,/SCK*%
X-5080000Y-15240000D03*
%TO.P,U2,5*%
%TO.N,/enc_dt*%
X-12700000Y-2540000D03*
%TO.P,U2,18*%
%TO.N,/MISO*%
X-5080000Y-17780000D03*
%TO.P,U2,4*%
%TO.N,/enc_clk*%
X-12700000Y0D03*
%TO.P,U2,17*%
%TO.N,/MOSI*%
X-5080000Y-20320000D03*
%TO.P,U2,3*%
%TO.N,/TX*%
X-12700000Y2540000D03*
%TO.P,U2,16*%
%TO.N,/lamp*%
X-5080000Y-22860000D03*
%TO.P,U2,2*%
%TO.N,/RX*%
X-12700000Y5080000D03*
%TO.P,U2,15*%
%TO.N,/audio*%
X-5080000Y-25400000D03*
D17*
%TO.P,U2,1*%
%TO.N,/!RST*%
X-12700000Y7620000D03*
%TD*%
%TO.P,U1,16*%
%TO.N,Net-(JP4-Pad2)*%
%TA.AperFunction,SMDPad,CuDef*%
G36*
G01*
X19235000Y3325000D02*
X19235000Y3025000D01*
G75*
G02*
X19085000Y2875000I-150000J0D01*
G01*
X17335000Y2875000D01*
G75*
G02*
X17185000Y3025000I0J150000D01*
G01*
X17185000Y3325000D01*
G75*
G02*
X17335000Y3475000I150000J0D01*
G01*
X19085000Y3475000D01*
G75*
G02*
X19235000Y3325000I0J-150000D01*
G01*
G37*
%TD.AperFunction*%
%TO.P,U1,15*%
%TO.N,/SDA*%
%TA.AperFunction,SMDPad,CuDef*%
G36*
G01*
X19235000Y2055000D02*
X19235000Y1755000D01*
G75*
G02*
X19085000Y1605000I-150000J0D01*
G01*
X17335000Y1605000D01*
G75*
G02*
X17185000Y1755000I0J150000D01*
G01*
X17185000Y2055000D01*
G75*
G02*
X17335000Y2205000I150000J0D01*
G01*
X19085000Y2205000D01*
G75*
G02*
X19235000Y2055000I0J-150000D01*
G01*
G37*
%TD.AperFunction*%
%TO.P,U1,14*%
%TO.N,Net-(BT1-Pad1)*%
%TA.AperFunction,SMDPad,CuDef*%
G36*
G01*
X19235000Y785000D02*
X19235000Y485000D01*
G75*
G02*
X19085000Y335000I-150000J0D01*
G01*
X17335000Y335000D01*
G75*
G02*
X17185000Y485000I0J150000D01*
G01*
X17185000Y785000D01*
G75*
G02*
X17335000Y935000I150000J0D01*
G01*
X19085000Y935000D01*
G75*
G02*
X19235000Y785000I0J-150000D01*
G01*
G37*
%TD.AperFunction*%
%TO.P,U1,13*%
%TO.N,GND*%
%TA.AperFunction,SMDPad,CuDef*%
G36*
G01*
X19235000Y-485000D02*
X19235000Y-785000D01*
G75*
G02*
X19085000Y-935000I-150000J0D01*
G01*
X17335000Y-935000D01*
G75*
G02*
X17185000Y-785000I0J150000D01*
G01*
X17185000Y-485000D01*
G75*
G02*
X17335000Y-335000I150000J0D01*
G01*
X19085000Y-335000D01*
G75*
G02*
X19235000Y-485000I0J-150000D01*
G01*
G37*
%TD.AperFunction*%
%TO.P,U1,12*%
%TA.AperFunction,SMDPad,CuDef*%
G36*
G01*
X19235000Y-1755000D02*
X19235000Y-2055000D01*
G75*
G02*
X19085000Y-2205000I-150000J0D01*
G01*
X17335000Y-2205000D01*
G75*
G02*
X17185000Y-2055000I0J150000D01*
G01*
X17185000Y-1755000D01*
G75*
G02*
X17335000Y-1605000I150000J0D01*
G01*
X19085000Y-1605000D01*
G75*
G02*
X19235000Y-1755000I0J-150000D01*
G01*
G37*
%TD.AperFunction*%
%TO.P,U1,11*%
%TA.AperFunction,SMDPad,CuDef*%
G36*
G01*
X19235000Y-3025000D02*
X19235000Y-3325000D01*
G75*
G02*
X19085000Y-3475000I-150000J0D01*
G01*
X17335000Y-3475000D01*
G75*
G02*
X17185000Y-3325000I0J150000D01*
G01*
X17185000Y-3025000D01*
G75*
G02*
X17335000Y-2875000I150000J0D01*
G01*
X19085000Y-2875000D01*
G75*
G02*
X19235000Y-3025000I0J-150000D01*
G01*
G37*
%TD.AperFunction*%
%TO.P,U1,10*%
%TA.AperFunction,SMDPad,CuDef*%
G36*
G01*
X19235000Y-4295000D02*
X19235000Y-4595000D01*
G75*
G02*
X19085000Y-4745000I-150000J0D01*
G01*
X17335000Y-4745000D01*
G75*
G02*
X17185000Y-4595000I0J150000D01*
G01*
X17185000Y-4295000D01*
G75*
G02*
X17335000Y-4145000I150000J0D01*
G01*
X19085000Y-4145000D01*
G75*
G02*
X19235000Y-4295000I0J-150000D01*
G01*
G37*
%TD.AperFunction*%
%TO.P,U1,9*%
%TA.AperFunction,SMDPad,CuDef*%
G36*
G01*
X19235000Y-5565000D02*
X19235000Y-5865000D01*
G75*
G02*
X19085000Y-6015000I-150000J0D01*
G01*
X17335000Y-6015000D01*
G75*
G02*
X17185000Y-5865000I0J150000D01*
G01*
X17185000Y-5565000D01*
G75*
G02*
X17335000Y-5415000I150000J0D01*
G01*
X19085000Y-5415000D01*
G75*
G02*
X19235000Y-5565000I0J-150000D01*
G01*
G37*
%TD.AperFunction*%
%TO.P,U1,8*%
%TA.AperFunction,SMDPad,CuDef*%
G36*
G01*
X28535000Y-5565000D02*
X28535000Y-5865000D01*
G75*
G02*
X28385000Y-6015000I-150000J0D01*
G01*
X26635000Y-6015000D01*
G75*
G02*
X26485000Y-5865000I0J150000D01*
G01*
X26485000Y-5565000D01*
G75*
G02*
X26635000Y-5415000I150000J0D01*
G01*
X28385000Y-5415000D01*
G75*
G02*
X28535000Y-5565000I0J-150000D01*
G01*
G37*
%TD.AperFunction*%
%TO.P,U1,7*%
%TA.AperFunction,SMDPad,CuDef*%
G36*
G01*
X28535000Y-4295000D02*
X28535000Y-4595000D01*
G75*
G02*
X28385000Y-4745000I-150000J0D01*
G01*
X26635000Y-4745000D01*
G75*
G02*
X26485000Y-4595000I0J150000D01*
G01*
X26485000Y-4295000D01*
G75*
G02*
X26635000Y-4145000I150000J0D01*
G01*
X28385000Y-4145000D01*
G75*
G02*
X28535000Y-4295000I0J-150000D01*
G01*
G37*
%TD.AperFunction*%
%TO.P,U1,6*%
%TA.AperFunction,SMDPad,CuDef*%
G36*
G01*
X28535000Y-3025000D02*
X28535000Y-3325000D01*
G75*
G02*
X28385000Y-3475000I-150000J0D01*
G01*
X26635000Y-3475000D01*
G75*
G02*
X26485000Y-3325000I0J150000D01*
G01*
X26485000Y-3025000D01*
G75*
G02*
X26635000Y-2875000I150000J0D01*
G01*
X28385000Y-2875000D01*
G75*
G02*
X28535000Y-3025000I0J-150000D01*
G01*
G37*
%TD.AperFunction*%
%TO.P,U1,5*%
%TA.AperFunction,SMDPad,CuDef*%
G36*
G01*
X28535000Y-1755000D02*
X28535000Y-2055000D01*
G75*
G02*
X28385000Y-2205000I-150000J0D01*
G01*
X26635000Y-2205000D01*
G75*
G02*
X26485000Y-2055000I0J150000D01*
G01*
X26485000Y-1755000D01*
G75*
G02*
X26635000Y-1605000I150000J0D01*
G01*
X28385000Y-1605000D01*
G75*
G02*
X28535000Y-1755000I0J-150000D01*
G01*
G37*
%TD.AperFunction*%
%TO.P,U1,4*%
%TO.N,Net-(U1-Pad4)*%
%TA.AperFunction,SMDPad,CuDef*%
G36*
G01*
X28535000Y-485000D02*
X28535000Y-785000D01*
G75*
G02*
X28385000Y-935000I-150000J0D01*
G01*
X26635000Y-935000D01*
G75*
G02*
X26485000Y-785000I0J150000D01*
G01*
X26485000Y-485000D01*
G75*
G02*
X26635000Y-335000I150000J0D01*
G01*
X28385000Y-335000D01*
G75*
G02*
X28535000Y-485000I0J-150000D01*
G01*
G37*
%TD.AperFunction*%
%TO.P,U1,3*%
%TO.N,Net-(U1-Pad3)*%
%TA.AperFunction,SMDPad,CuDef*%
G36*
G01*
X28535000Y785000D02*
X28535000Y485000D01*
G75*
G02*
X28385000Y335000I-150000J0D01*
G01*
X26635000Y335000D01*
G75*
G02*
X26485000Y485000I0J150000D01*
G01*
X26485000Y785000D01*
G75*
G02*
X26635000Y935000I150000J0D01*
G01*
X28385000Y935000D01*
G75*
G02*
X28535000Y785000I0J-150000D01*
G01*
G37*
%TD.AperFunction*%
%TO.P,U1,2*%
%TO.N,+5V*%
%TA.AperFunction,SMDPad,CuDef*%
G36*
G01*
X28535000Y2055000D02*
X28535000Y1755000D01*
G75*
G02*
X28385000Y1605000I-150000J0D01*
G01*
X26635000Y1605000D01*
G75*
G02*
X26485000Y1755000I0J150000D01*
G01*
X26485000Y2055000D01*
G75*
G02*
X26635000Y2205000I150000J0D01*
G01*
X28385000Y2205000D01*
G75*
G02*
X28535000Y2055000I0J-150000D01*
G01*
G37*
%TD.AperFunction*%
%TO.P,U1,1*%
%TO.N,Net-(U1-Pad1)*%
%TA.AperFunction,SMDPad,CuDef*%
G36*
G01*
X28535000Y3325000D02*
X28535000Y3025000D01*
G75*
G02*
X28385000Y2875000I-150000J0D01*
G01*
X26635000Y2875000D01*
G75*
G02*
X26485000Y3025000I0J150000D01*
G01*
X26485000Y3325000D01*
G75*
G02*
X26635000Y3475000I150000J0D01*
G01*
X28385000Y3475000D01*
G75*
G02*
X28535000Y3325000I0J-150000D01*
G01*
G37*
%TD.AperFunction*%
%TD*%
D18*
%TO.P,SW4,1*%
%TO.N,Net-(R14-Pad1)*%
X-26820000Y11430000D03*
%TO.P,SW4,2*%
%TO.N,GND*%
X-26820000Y15930000D03*
%TO.P,SW4,1*%
%TO.N,Net-(R14-Pad1)*%
X-20320000Y11430000D03*
%TO.P,SW4,2*%
%TO.N,GND*%
X-20320000Y15930000D03*
%TD*%
D19*
%TO.P,SW2,2*%
%TO.N,GND*%
X-26670000Y7620000D03*
%TO.P,SW2,1*%
%TO.N,/BTN_snooze*%
%TA.AperFunction,ComponentPad*%
G36*
G01*
X-25824999Y4210000D02*
X-27515001Y4210000D01*
G75*
G02*
X-27765000Y4459999I0J249999D01*
G01*
X-27765000Y5700001D01*
G75*
G02*
X-27515001Y5950000I249999J0D01*
G01*
X-25824999Y5950000D01*
G75*
G02*
X-25575000Y5700001I0J-249999D01*
G01*
X-25575000Y4459999D01*
G75*
G02*
X-25824999Y4210000I-249999J0D01*
G01*
G37*
%TD.AperFunction*%
%TD*%
%TO.P,SW1,2*%
%TO.N,GND*%
X-26670000Y1270000D03*
%TO.P,SW1,1*%
%TO.N,/BTN_stop*%
%TA.AperFunction,ComponentPad*%
G36*
G01*
X-25824999Y-2140000D02*
X-27515001Y-2140000D01*
G75*
G02*
X-27765000Y-1890001I0J249999D01*
G01*
X-27765000Y-649999D01*
G75*
G02*
X-27515001Y-400000I249999J0D01*
G01*
X-25824999Y-400000D01*
G75*
G02*
X-25575000Y-649999I0J-249999D01*
G01*
X-25575000Y-1890001D01*
G75*
G02*
X-25824999Y-2140000I-249999J0D01*
G01*
G37*
%TD.AperFunction*%
%TD*%
%TO.P,R23,2*%
%TO.N,Net-(JP3-Pad2)*%
%TA.AperFunction,SMDPad,CuDef*%
G36*
G01*
X-5705001Y32400000D02*
X-4454999Y32400000D01*
G75*
G02*
X-4205000Y32150001I0J-249999D01*
G01*
X-4205000Y31349999D01*
G75*
G02*
X-4454999Y31100000I-249999J0D01*
G01*
X-5705001Y31100000D01*
G75*
G02*
X-5955000Y31349999I0J249999D01*
G01*
X-5955000Y32150001D01*
G75*
G02*
X-5705001Y32400000I249999J0D01*
G01*
G37*
%TD.AperFunction*%
%TO.P,R23,1*%
%TO.N,+5V*%
%TA.AperFunction,SMDPad,CuDef*%
G36*
G01*
X-5705001Y35500000D02*
X-4454999Y35500000D01*
G75*
G02*
X-4205000Y35250001I0J-249999D01*
G01*
X-4205000Y34449999D01*
G75*
G02*
X-4454999Y34200000I-249999J0D01*
G01*
X-5705001Y34200000D01*
G75*
G02*
X-5955000Y34449999I0J249999D01*
G01*
X-5955000Y35250001D01*
G75*
G02*
X-5705001Y35500000I249999J0D01*
G01*
G37*
%TD.AperFunction*%
%TD*%
%TO.P,R22,2*%
%TO.N,/audio*%
%TA.AperFunction,SMDPad,CuDef*%
G36*
G01*
X-2910000Y18424999D02*
X-2910000Y19675001D01*
G75*
G02*
X-2660001Y19925000I249999J0D01*
G01*
X-1859999Y19925000D01*
G75*
G02*
X-1610000Y19675001I0J-249999D01*
G01*
X-1610000Y18424999D01*
G75*
G02*
X-1859999Y18175000I-249999J0D01*
G01*
X-2660001Y18175000D01*
G75*
G02*
X-2910000Y18424999I0J249999D01*
G01*
G37*
%TD.AperFunction*%
%TO.P,R22,1*%
%TO.N,Net-(Q9-Pad1)*%
%TA.AperFunction,SMDPad,CuDef*%
G36*
G01*
X-6010000Y18424999D02*
X-6010000Y19675001D01*
G75*
G02*
X-5760001Y19925000I249999J0D01*
G01*
X-4959999Y19925000D01*
G75*
G02*
X-4710000Y19675001I0J-249999D01*
G01*
X-4710000Y18424999D01*
G75*
G02*
X-4959999Y18175000I-249999J0D01*
G01*
X-5760001Y18175000D01*
G75*
G02*
X-6010000Y18424999I0J249999D01*
G01*
G37*
%TD.AperFunction*%
%TD*%
%TO.P,R21,2*%
%TO.N,GND*%
%TA.AperFunction,SMDPad,CuDef*%
G36*
G01*
X16880000Y22215001D02*
X16880000Y20964999D01*
G75*
G02*
X16630001Y20715000I-249999J0D01*
G01*
X15829999Y20715000D01*
G75*
G02*
X15580000Y20964999I0J249999D01*
G01*
X15580000Y22215001D01*
G75*
G02*
X15829999Y22465000I249999J0D01*
G01*
X16630001Y22465000D01*
G75*
G02*
X16880000Y22215001I0J-249999D01*
G01*
G37*
%TD.AperFunction*%
%TO.P,R21,1*%
%TO.N,Net-(Q6-Pad1)*%
%TA.AperFunction,SMDPad,CuDef*%
G36*
G01*
X19980000Y22215001D02*
X19980000Y20964999D01*
G75*
G02*
X19730001Y20715000I-249999J0D01*
G01*
X18929999Y20715000D01*
G75*
G02*
X18680000Y20964999I0J249999D01*
G01*
X18680000Y22215001D01*
G75*
G02*
X18929999Y22465000I249999J0D01*
G01*
X19730001Y22465000D01*
G75*
G02*
X19980000Y22215001I0J-249999D01*
G01*
G37*
%TD.AperFunction*%
%TD*%
%TO.P,R20,2*%
%TO.N,GND*%
%TA.AperFunction,SMDPad,CuDef*%
G36*
G01*
X17135001Y12330000D02*
X15884999Y12330000D01*
G75*
G02*
X15635000Y12579999I0J249999D01*
G01*
X15635000Y13380001D01*
G75*
G02*
X15884999Y13630000I249999J0D01*
G01*
X17135001Y13630000D01*
G75*
G02*
X17385000Y13380001I0J-249999D01*
G01*
X17385000Y12579999D01*
G75*
G02*
X17135001Y12330000I-249999J0D01*
G01*
G37*
%TD.AperFunction*%
%TO.P,R20,1*%
%TO.N,Net-(C13-Pad1)*%
%TA.AperFunction,SMDPad,CuDef*%
G36*
G01*
X17135001Y9230000D02*
X15884999Y9230000D01*
G75*
G02*
X15635000Y9479999I0J249999D01*
G01*
X15635000Y10280001D01*
G75*
G02*
X15884999Y10530000I249999J0D01*
G01*
X17135001Y10530000D01*
G75*
G02*
X17385000Y10280001I0J-249999D01*
G01*
X17385000Y9479999D01*
G75*
G02*
X17135001Y9230000I-249999J0D01*
G01*
G37*
%TD.AperFunction*%
%TD*%
%TO.P,R19,2*%
%TO.N,Net-(C13-Pad1)*%
%TA.AperFunction,SMDPad,CuDef*%
G36*
G01*
X14595001Y7250000D02*
X13344999Y7250000D01*
G75*
G02*
X13095000Y7499999I0J249999D01*
G01*
X13095000Y8300001D01*
G75*
G02*
X13344999Y8550000I249999J0D01*
G01*
X14595001Y8550000D01*
G75*
G02*
X14845000Y8300001I0J-249999D01*
G01*
X14845000Y7499999D01*
G75*
G02*
X14595001Y7250000I-249999J0D01*
G01*
G37*
%TD.AperFunction*%
%TO.P,R19,1*%
%TO.N,+5V*%
%TA.AperFunction,SMDPad,CuDef*%
G36*
G01*
X14595001Y4150000D02*
X13344999Y4150000D01*
G75*
G02*
X13095000Y4399999I0J249999D01*
G01*
X13095000Y5200001D01*
G75*
G02*
X13344999Y5450000I249999J0D01*
G01*
X14595001Y5450000D01*
G75*
G02*
X14845000Y5200001I0J-249999D01*
G01*
X14845000Y4399999D01*
G75*
G02*
X14595001Y4150000I-249999J0D01*
G01*
G37*
%TD.AperFunction*%
%TD*%
%TO.P,R18,2*%
%TO.N,Net-(C12-Pad1)*%
%TA.AperFunction,SMDPad,CuDef*%
G36*
G01*
X14595001Y12330000D02*
X13344999Y12330000D01*
G75*
G02*
X13095000Y12579999I0J249999D01*
G01*
X13095000Y13380001D01*
G75*
G02*
X13344999Y13630000I249999J0D01*
G01*
X14595001Y13630000D01*
G75*
G02*
X14845000Y13380001I0J-249999D01*
G01*
X14845000Y12579999D01*
G75*
G02*
X14595001Y12330000I-249999J0D01*
G01*
G37*
%TD.AperFunction*%
%TO.P,R18,1*%
%TO.N,Net-(C13-Pad1)*%
%TA.AperFunction,SMDPad,CuDef*%
G36*
G01*
X14595001Y9230000D02*
X13344999Y9230000D01*
G75*
G02*
X13095000Y9479999I0J249999D01*
G01*
X13095000Y10280001D01*
G75*
G02*
X13344999Y10530000I249999J0D01*
G01*
X14595001Y10530000D01*
G75*
G02*
X14845000Y10280001I0J-249999D01*
G01*
X14845000Y9479999D01*
G75*
G02*
X14595001Y9230000I-249999J0D01*
G01*
G37*
%TD.AperFunction*%
%TD*%
%TO.P,R17,2*%
%TO.N,/ambient*%
%TA.AperFunction,SMDPad,CuDef*%
G36*
G01*
X10804999Y10530000D02*
X12055001Y10530000D01*
G75*
G02*
X12305000Y10280001I0J-249999D01*
G01*
X12305000Y9479999D01*
G75*
G02*
X12055001Y9230000I-249999J0D01*
G01*
X10804999Y9230000D01*
G75*
G02*
X10555000Y9479999I0J249999D01*
G01*
X10555000Y10280001D01*
G75*
G02*
X10804999Y10530000I249999J0D01*
G01*
G37*
%TD.AperFunction*%
%TO.P,R17,1*%
%TO.N,Net-(C12-Pad1)*%
%TA.AperFunction,SMDPad,CuDef*%
G36*
G01*
X10804999Y13630000D02*
X12055001Y13630000D01*
G75*
G02*
X12305000Y13380001I0J-249999D01*
G01*
X12305000Y12579999D01*
G75*
G02*
X12055001Y12330000I-249999J0D01*
G01*
X10804999Y12330000D01*
G75*
G02*
X10555000Y12579999I0J249999D01*
G01*
X10555000Y13380001D01*
G75*
G02*
X10804999Y13630000I249999J0D01*
G01*
G37*
%TD.AperFunction*%
%TD*%
%TO.P,R16,2*%
%TO.N,/lamp*%
%TA.AperFunction,SMDPad,CuDef*%
G36*
G01*
X2275000Y-22234999D02*
X2275000Y-23485001D01*
G75*
G02*
X2025001Y-23735000I-249999J0D01*
G01*
X1224999Y-23735000D01*
G75*
G02*
X975000Y-23485001I0J249999D01*
G01*
X975000Y-22234999D01*
G75*
G02*
X1224999Y-21985000I249999J0D01*
G01*
X2025001Y-21985000D01*
G75*
G02*
X2275000Y-22234999I0J-249999D01*
G01*
G37*
%TD.AperFunction*%
%TO.P,R16,1*%
%TO.N,Net-(Q5-Pad4)*%
%TA.AperFunction,SMDPad,CuDef*%
G36*
G01*
X5375000Y-22234999D02*
X5375000Y-23485001D01*
G75*
G02*
X5125001Y-23735000I-249999J0D01*
G01*
X4324999Y-23735000D01*
G75*
G02*
X4075000Y-23485001I0J249999D01*
G01*
X4075000Y-22234999D01*
G75*
G02*
X4324999Y-21985000I249999J0D01*
G01*
X5125001Y-21985000D01*
G75*
G02*
X5375000Y-22234999I0J-249999D01*
G01*
G37*
%TD.AperFunction*%
%TD*%
%TO.P,R15,2*%
%TO.N,/ambient*%
%TA.AperFunction,SMDPad,CuDef*%
G36*
G01*
X-14614999Y-23865000D02*
X-15865001Y-23865000D01*
G75*
G02*
X-16115000Y-23615001I0J249999D01*
G01*
X-16115000Y-22814999D01*
G75*
G02*
X-15865001Y-22565000I249999J0D01*
G01*
X-14614999Y-22565000D01*
G75*
G02*
X-14365000Y-22814999I0J-249999D01*
G01*
X-14365000Y-23615001D01*
G75*
G02*
X-14614999Y-23865000I-249999J0D01*
G01*
G37*
%TD.AperFunction*%
%TO.P,R15,1*%
%TO.N,Net-(Q4-Pad4)*%
%TA.AperFunction,SMDPad,CuDef*%
G36*
G01*
X-14614999Y-26965000D02*
X-15865001Y-26965000D01*
G75*
G02*
X-16115000Y-26715001I0J249999D01*
G01*
X-16115000Y-25914999D01*
G75*
G02*
X-15865001Y-25665000I249999J0D01*
G01*
X-14614999Y-25665000D01*
G75*
G02*
X-14365000Y-25914999I0J-249999D01*
G01*
X-14365000Y-26715001D01*
G75*
G02*
X-14614999Y-26965000I-249999J0D01*
G01*
G37*
%TD.AperFunction*%
%TD*%
%TO.P,R14,2*%
%TO.N,/!RST*%
%TA.AperFunction,SMDPad,CuDef*%
G36*
G01*
X-15610000Y9534999D02*
X-15610000Y10785001D01*
G75*
G02*
X-15360001Y11035000I249999J0D01*
G01*
X-14559999Y11035000D01*
G75*
G02*
X-14310000Y10785001I0J-249999D01*
G01*
X-14310000Y9534999D01*
G75*
G02*
X-14559999Y9285000I-249999J0D01*
G01*
X-15360001Y9285000D01*
G75*
G02*
X-15610000Y9534999I0J249999D01*
G01*
G37*
%TD.AperFunction*%
%TO.P,R14,1*%
%TO.N,Net-(R14-Pad1)*%
%TA.AperFunction,SMDPad,CuDef*%
G36*
G01*
X-18710000Y9534999D02*
X-18710000Y10785001D01*
G75*
G02*
X-18460001Y11035000I249999J0D01*
G01*
X-17659999Y11035000D01*
G75*
G02*
X-17410000Y10785001I0J-249999D01*
G01*
X-17410000Y9534999D01*
G75*
G02*
X-17659999Y9285000I-249999J0D01*
G01*
X-18460001Y9285000D01*
G75*
G02*
X-18710000Y9534999I0J249999D01*
G01*
G37*
%TD.AperFunction*%
%TD*%
%TO.P,R13,2*%
%TO.N,/!RST*%
%TA.AperFunction,SMDPad,CuDef*%
G36*
G01*
X-1914999Y10044000D02*
X-3165001Y10044000D01*
G75*
G02*
X-3415000Y10293999I0J249999D01*
G01*
X-3415000Y11094001D01*
G75*
G02*
X-3165001Y11344000I249999J0D01*
G01*
X-1914999Y11344000D01*
G75*
G02*
X-1665000Y11094001I0J-249999D01*
G01*
X-1665000Y10293999D01*
G75*
G02*
X-1914999Y10044000I-249999J0D01*
G01*
G37*
%TD.AperFunction*%
%TO.P,R13,1*%
%TO.N,+5V*%
%TA.AperFunction,SMDPad,CuDef*%
G36*
G01*
X-1914999Y6944000D02*
X-3165001Y6944000D01*
G75*
G02*
X-3415000Y7193999I0J249999D01*
G01*
X-3415000Y7994001D01*
G75*
G02*
X-3165001Y8244000I249999J0D01*
G01*
X-1914999Y8244000D01*
G75*
G02*
X-1665000Y7994001I0J-249999D01*
G01*
X-1665000Y7193999D01*
G75*
G02*
X-1914999Y6944000I-249999J0D01*
G01*
G37*
%TD.AperFunction*%
%TD*%
%TO.P,R12,2*%
%TO.N,GND*%
%TA.AperFunction,SMDPad,CuDef*%
G36*
G01*
X33664999Y-900000D02*
X34915001Y-900000D01*
G75*
G02*
X35165000Y-1149999I0J-249999D01*
G01*
X35165000Y-1950001D01*
G75*
G02*
X34915001Y-2200000I-249999J0D01*
G01*
X33664999Y-2200000D01*
G75*
G02*
X33415000Y-1950001I0J249999D01*
G01*
X33415000Y-1149999D01*
G75*
G02*
X33664999Y-900000I249999J0D01*
G01*
G37*
%TD.AperFunction*%
%TO.P,R12,1*%
%TO.N,Net-(C8-Pad1)*%
%TA.AperFunction,SMDPad,CuDef*%
G36*
G01*
X33664999Y2200000D02*
X34915001Y2200000D01*
G75*
G02*
X35165000Y1950001I0J-249999D01*
G01*
X35165000Y1149999D01*
G75*
G02*
X34915001Y900000I-249999J0D01*
G01*
X33664999Y900000D01*
G75*
G02*
X33415000Y1149999I0J249999D01*
G01*
X33415000Y1950001D01*
G75*
G02*
X33664999Y2200000I249999J0D01*
G01*
G37*
%TD.AperFunction*%
%TD*%
%TO.P,R11,2*%
%TO.N,Net-(Q3-Pad1)*%
%TA.AperFunction,SMDPad,CuDef*%
G36*
G01*
X36204999Y-900000D02*
X37455001Y-900000D01*
G75*
G02*
X37705000Y-1149999I0J-249999D01*
G01*
X37705000Y-1950001D01*
G75*
G02*
X37455001Y-2200000I-249999J0D01*
G01*
X36204999Y-2200000D01*
G75*
G02*
X35955000Y-1950001I0J249999D01*
G01*
X35955000Y-1149999D01*
G75*
G02*
X36204999Y-900000I249999J0D01*
G01*
G37*
%TD.AperFunction*%
%TO.P,R11,1*%
%TO.N,Net-(C8-Pad1)*%
%TA.AperFunction,SMDPad,CuDef*%
G36*
G01*
X36204999Y2200000D02*
X37455001Y2200000D01*
G75*
G02*
X37705000Y1950001I0J-249999D01*
G01*
X37705000Y1149999D01*
G75*
G02*
X37455001Y900000I-249999J0D01*
G01*
X36204999Y900000D01*
G75*
G02*
X35955000Y1149999I0J249999D01*
G01*
X35955000Y1950001D01*
G75*
G02*
X36204999Y2200000I249999J0D01*
G01*
G37*
%TD.AperFunction*%
%TD*%
%TO.P,R9,2*%
%TO.N,Net-(R26-Pad2)*%
%TA.AperFunction,SMDPad,CuDef*%
G36*
G01*
X22215001Y-33390000D02*
X20964999Y-33390000D01*
G75*
G02*
X20715000Y-33140001I0J249999D01*
G01*
X20715000Y-32339999D01*
G75*
G02*
X20964999Y-32090000I249999J0D01*
G01*
X22215001Y-32090000D01*
G75*
G02*
X22465000Y-32339999I0J-249999D01*
G01*
X22465000Y-33140001D01*
G75*
G02*
X22215001Y-33390000I-249999J0D01*
G01*
G37*
%TD.AperFunction*%
%TO.P,R9,1*%
%TO.N,+5V*%
%TA.AperFunction,SMDPad,CuDef*%
G36*
G01*
X22215001Y-36490000D02*
X20964999Y-36490000D01*
G75*
G02*
X20715000Y-36240001I0J249999D01*
G01*
X20715000Y-35439999D01*
G75*
G02*
X20964999Y-35190000I249999J0D01*
G01*
X22215001Y-35190000D01*
G75*
G02*
X22465000Y-35439999I0J-249999D01*
G01*
X22465000Y-36240001D01*
G75*
G02*
X22215001Y-36490000I-249999J0D01*
G01*
G37*
%TD.AperFunction*%
%TD*%
%TO.P,R8,2*%
%TO.N,Net-(R24-Pad1)*%
%TA.AperFunction,SMDPad,CuDef*%
G36*
G01*
X27295001Y-33390000D02*
X26044999Y-33390000D01*
G75*
G02*
X25795000Y-33140001I0J249999D01*
G01*
X25795000Y-32339999D01*
G75*
G02*
X26044999Y-32090000I249999J0D01*
G01*
X27295001Y-32090000D01*
G75*
G02*
X27545000Y-32339999I0J-249999D01*
G01*
X27545000Y-33140001D01*
G75*
G02*
X27295001Y-33390000I-249999J0D01*
G01*
G37*
%TD.AperFunction*%
%TO.P,R8,1*%
%TO.N,+5V*%
%TA.AperFunction,SMDPad,CuDef*%
G36*
G01*
X27295001Y-36490000D02*
X26044999Y-36490000D01*
G75*
G02*
X25795000Y-36240001I0J249999D01*
G01*
X25795000Y-35439999D01*
G75*
G02*
X26044999Y-35190000I249999J0D01*
G01*
X27295001Y-35190000D01*
G75*
G02*
X27545000Y-35439999I0J-249999D01*
G01*
X27545000Y-36240001D01*
G75*
G02*
X27295001Y-36490000I-249999J0D01*
G01*
G37*
%TD.AperFunction*%
%TD*%
%TO.P,R7,2*%
%TO.N,Net-(R25-Pad1)*%
%TA.AperFunction,SMDPad,CuDef*%
G36*
G01*
X24755001Y-33390000D02*
X23504999Y-33390000D01*
G75*
G02*
X23255000Y-33140001I0J249999D01*
G01*
X23255000Y-32339999D01*
G75*
G02*
X23504999Y-32090000I249999J0D01*
G01*
X24755001Y-32090000D01*
G75*
G02*
X25005000Y-32339999I0J-249999D01*
G01*
X25005000Y-33140001D01*
G75*
G02*
X24755001Y-33390000I-249999J0D01*
G01*
G37*
%TD.AperFunction*%
%TO.P,R7,1*%
%TO.N,+5V*%
%TA.AperFunction,SMDPad,CuDef*%
G36*
G01*
X24755001Y-36490000D02*
X23504999Y-36490000D01*
G75*
G02*
X23255000Y-36240001I0J249999D01*
G01*
X23255000Y-35439999D01*
G75*
G02*
X23504999Y-35190000I249999J0D01*
G01*
X24755001Y-35190000D01*
G75*
G02*
X25005000Y-35439999I0J-249999D01*
G01*
X25005000Y-36240001D01*
G75*
G02*
X24755001Y-36490000I-249999J0D01*
G01*
G37*
%TD.AperFunction*%
%TD*%
%TO.P,R6,2*%
%TO.N,/BTN_snooze*%
%TA.AperFunction,SMDPad,CuDef*%
G36*
G01*
X-19694999Y4430000D02*
X-20945001Y4430000D01*
G75*
G02*
X-21195000Y4679999I0J249999D01*
G01*
X-21195000Y5480001D01*
G75*
G02*
X-20945001Y5730000I249999J0D01*
G01*
X-19694999Y5730000D01*
G75*
G02*
X-19445000Y5480001I0J-249999D01*
G01*
X-19445000Y4679999D01*
G75*
G02*
X-19694999Y4430000I-249999J0D01*
G01*
G37*
%TD.AperFunction*%
%TO.P,R6,1*%
%TO.N,+5V*%
%TA.AperFunction,SMDPad,CuDef*%
G36*
G01*
X-19694999Y1330000D02*
X-20945001Y1330000D01*
G75*
G02*
X-21195000Y1579999I0J249999D01*
G01*
X-21195000Y2380001D01*
G75*
G02*
X-20945001Y2630000I249999J0D01*
G01*
X-19694999Y2630000D01*
G75*
G02*
X-19445000Y2380001I0J-249999D01*
G01*
X-19445000Y1579999D01*
G75*
G02*
X-19694999Y1330000I-249999J0D01*
G01*
G37*
%TD.AperFunction*%
%TD*%
%TO.P,R5,2*%
%TO.N,Net-(J3-Pad2)*%
%TA.AperFunction,SMDPad,CuDef*%
G36*
G01*
X-9790000Y-28838999D02*
X-9790000Y-30089001D01*
G75*
G02*
X-10039999Y-30339000I-249999J0D01*
G01*
X-10840001Y-30339000D01*
G75*
G02*
X-11090000Y-30089001I0J249999D01*
G01*
X-11090000Y-28838999D01*
G75*
G02*
X-10840001Y-28589000I249999J0D01*
G01*
X-10039999Y-28589000D01*
G75*
G02*
X-9790000Y-28838999I0J-249999D01*
G01*
G37*
%TD.AperFunction*%
%TO.P,R5,1*%
%TO.N,Net-(J3-Pad1)*%
%TA.AperFunction,SMDPad,CuDef*%
G36*
G01*
X-6690000Y-28838999D02*
X-6690000Y-30089001D01*
G75*
G02*
X-6939999Y-30339000I-249999J0D01*
G01*
X-7740001Y-30339000D01*
G75*
G02*
X-7990000Y-30089001I0J249999D01*
G01*
X-7990000Y-28838999D01*
G75*
G02*
X-7740001Y-28589000I249999J0D01*
G01*
X-6939999Y-28589000D01*
G75*
G02*
X-6690000Y-28838999I0J-249999D01*
G01*
G37*
%TD.AperFunction*%
%TD*%
%TO.P,R4,2*%
%TO.N,/SCL*%
%TA.AperFunction,SMDPad,CuDef*%
G36*
G01*
X625001Y10070000D02*
X-625001Y10070000D01*
G75*
G02*
X-875000Y10319999I0J249999D01*
G01*
X-875000Y11120001D01*
G75*
G02*
X-625001Y11370000I249999J0D01*
G01*
X625001Y11370000D01*
G75*
G02*
X875000Y11120001I0J-249999D01*
G01*
X875000Y10319999D01*
G75*
G02*
X625001Y10070000I-249999J0D01*
G01*
G37*
%TD.AperFunction*%
%TO.P,R4,1*%
%TO.N,+5V*%
%TA.AperFunction,SMDPad,CuDef*%
G36*
G01*
X625001Y6970000D02*
X-625001Y6970000D01*
G75*
G02*
X-875000Y7219999I0J249999D01*
G01*
X-875000Y8020001D01*
G75*
G02*
X-625001Y8270000I249999J0D01*
G01*
X625001Y8270000D01*
G75*
G02*
X875000Y8020001I0J-249999D01*
G01*
X875000Y7219999D01*
G75*
G02*
X625001Y6970000I-249999J0D01*
G01*
G37*
%TD.AperFunction*%
%TD*%
%TO.P,R3,2*%
%TO.N,/SDA*%
%TA.AperFunction,SMDPad,CuDef*%
G36*
G01*
X-625001Y2910000D02*
X625001Y2910000D01*
G75*
G02*
X875000Y2660001I0J-249999D01*
G01*
X875000Y1859999D01*
G75*
G02*
X625001Y1610000I-249999J0D01*
G01*
X-625001Y1610000D01*
G75*
G02*
X-875000Y1859999I0J249999D01*
G01*
X-875000Y2660001D01*
G75*
G02*
X-625001Y2910000I249999J0D01*
G01*
G37*
%TD.AperFunction*%
%TO.P,R3,1*%
%TO.N,+5V*%
%TA.AperFunction,SMDPad,CuDef*%
G36*
G01*
X-625001Y6010000D02*
X625001Y6010000D01*
G75*
G02*
X875000Y5760001I0J-249999D01*
G01*
X875000Y4959999D01*
G75*
G02*
X625001Y4710000I-249999J0D01*
G01*
X-625001Y4710000D01*
G75*
G02*
X-875000Y4959999I0J249999D01*
G01*
X-875000Y5760001D01*
G75*
G02*
X-625001Y6010000I249999J0D01*
G01*
G37*
%TD.AperFunction*%
%TD*%
%TO.P,R2,2*%
%TO.N,/LCD_BLU*%
%TA.AperFunction,SMDPad,CuDef*%
G36*
G01*
X-9790000Y-22234999D02*
X-9790000Y-23485001D01*
G75*
G02*
X-10039999Y-23735000I-249999J0D01*
G01*
X-10840001Y-23735000D01*
G75*
G02*
X-11090000Y-23485001I0J249999D01*
G01*
X-11090000Y-22234999D01*
G75*
G02*
X-10840001Y-21985000I249999J0D01*
G01*
X-10039999Y-21985000D01*
G75*
G02*
X-9790000Y-22234999I0J-249999D01*
G01*
G37*
%TD.AperFunction*%
%TO.P,R2,1*%
%TO.N,Net-(Q1-Pad1)*%
%TA.AperFunction,SMDPad,CuDef*%
G36*
G01*
X-6690000Y-22234999D02*
X-6690000Y-23485001D01*
G75*
G02*
X-6939999Y-23735000I-249999J0D01*
G01*
X-7740001Y-23735000D01*
G75*
G02*
X-7990000Y-23485001I0J249999D01*
G01*
X-7990000Y-22234999D01*
G75*
G02*
X-7740001Y-21985000I249999J0D01*
G01*
X-6939999Y-21985000D01*
G75*
G02*
X-6690000Y-22234999I0J-249999D01*
G01*
G37*
%TD.AperFunction*%
%TD*%
%TO.P,R1,2*%
%TO.N,/BTN_stop*%
%TA.AperFunction,SMDPad,CuDef*%
G36*
G01*
X-29835001Y370000D02*
X-28584999Y370000D01*
G75*
G02*
X-28335000Y120001I0J-249999D01*
G01*
X-28335000Y-680001D01*
G75*
G02*
X-28584999Y-930000I-249999J0D01*
G01*
X-29835001Y-930000D01*
G75*
G02*
X-30085000Y-680001I0J249999D01*
G01*
X-30085000Y120001D01*
G75*
G02*
X-29835001Y370000I249999J0D01*
G01*
G37*
%TD.AperFunction*%
%TO.P,R1,1*%
%TO.N,+5V*%
%TA.AperFunction,SMDPad,CuDef*%
G36*
G01*
X-29835001Y3470000D02*
X-28584999Y3470000D01*
G75*
G02*
X-28335000Y3220001I0J-249999D01*
G01*
X-28335000Y2419999D01*
G75*
G02*
X-28584999Y2170000I-249999J0D01*
G01*
X-29835001Y2170000D01*
G75*
G02*
X-30085000Y2419999I0J249999D01*
G01*
X-30085000Y3220001D01*
G75*
G02*
X-29835001Y3470000I249999J0D01*
G01*
G37*
%TD.AperFunction*%
%TD*%
D20*
%TO.P,Q12,3*%
%TO.N,GND*%
X21050000Y29210000D03*
%TO.P,Q12,2*%
%TO.N,Net-(JP2-Pad2)*%
X19050000Y30160000D03*
%TO.P,Q12,1*%
%TO.N,GND*%
X19050000Y28260000D03*
%TD*%
D21*
%TO.P,Q11,1*%
%TO.N,Net-(JP3-Pad1)*%
X-7860000Y21590000D03*
%TO.P,Q11,3*%
%TO.N,Net-(D7-Pad2)*%
X-12460000Y21590000D03*
%TO.P,Q11,2*%
%TO.N,GND*%
X-10160000Y21590000D03*
D22*
X-10160000Y27890000D03*
%TD*%
D21*
%TO.P,Q10,1*%
%TO.N,Net-(JP3-Pad2)*%
X-7860000Y31140000D03*
%TO.P,Q10,3*%
%TO.N,Net-(D7-Pad2)*%
X-12460000Y31140000D03*
%TO.P,Q10,2*%
%TO.N,+5V*%
X-10160000Y31140000D03*
D22*
X-10160000Y37440000D03*
%TD*%
D20*
%TO.P,Q9,3*%
%TO.N,Net-(JP3-Pad1)*%
X-7890000Y18264603D03*
%TO.P,Q9,2*%
%TO.N,GND*%
X-9890000Y19214603D03*
%TO.P,Q9,1*%
%TO.N,Net-(Q9-Pad1)*%
X-9890000Y17314603D03*
%TD*%
D23*
%TO.P,Q8,1*%
%TO.N,Net-(Q7-Pad2)*%
X21615000Y16115000D03*
%TO.P,Q8,3*%
%TO.N,Net-(Q6-Pad1)*%
X21615000Y20715000D03*
%TO.P,Q8,2*%
%TO.N,Net-(D6-Pad1)*%
X21615000Y18415000D03*
D24*
X27915000Y18415000D03*
%TD*%
D20*
%TO.P,Q7,3*%
%TO.N,Net-(D6-Pad1)*%
X23860000Y12700000D03*
%TO.P,Q7,2*%
%TO.N,Net-(Q7-Pad2)*%
X21860000Y13650000D03*
%TO.P,Q7,1*%
%TO.N,Net-(C13-Pad1)*%
X21860000Y11750000D03*
%TD*%
%TO.P,Q6,3*%
%TO.N,Net-(C13-Pad1)*%
X17415000Y18415000D03*
%TO.P,Q6,2*%
%TO.N,Net-(D5-Pad2)*%
X19415000Y17465000D03*
%TO.P,Q6,1*%
%TO.N,Net-(Q6-Pad1)*%
X19415000Y19365000D03*
%TD*%
%TO.P,Q5,8*%
%TO.N,Net-(D4-Pad2)*%
%TA.AperFunction,SMDPad,CuDef*%
G36*
G01*
X14755000Y-20090000D02*
X14455000Y-20090000D01*
G75*
G02*
X14305000Y-19940000I0J150000D01*
G01*
X14305000Y-18290000D01*
G75*
G02*
X14455000Y-18140000I150000J0D01*
G01*
X14755000Y-18140000D01*
G75*
G02*
X14905000Y-18290000I0J-150000D01*
G01*
X14905000Y-19940000D01*
G75*
G02*
X14755000Y-20090000I-150000J0D01*
G01*
G37*
%TD.AperFunction*%
%TO.P,Q5,7*%
%TA.AperFunction,SMDPad,CuDef*%
G36*
G01*
X13485000Y-20090000D02*
X13185000Y-20090000D01*
G75*
G02*
X13035000Y-19940000I0J150000D01*
G01*
X13035000Y-18290000D01*
G75*
G02*
X13185000Y-18140000I150000J0D01*
G01*
X13485000Y-18140000D01*
G75*
G02*
X13635000Y-18290000I0J-150000D01*
G01*
X13635000Y-19940000D01*
G75*
G02*
X13485000Y-20090000I-150000J0D01*
G01*
G37*
%TD.AperFunction*%
%TO.P,Q5,6*%
%TA.AperFunction,SMDPad,CuDef*%
G36*
G01*
X12215000Y-20090000D02*
X11915000Y-20090000D01*
G75*
G02*
X11765000Y-19940000I0J150000D01*
G01*
X11765000Y-18290000D01*
G75*
G02*
X11915000Y-18140000I150000J0D01*
G01*
X12215000Y-18140000D01*
G75*
G02*
X12365000Y-18290000I0J-150000D01*
G01*
X12365000Y-19940000D01*
G75*
G02*
X12215000Y-20090000I-150000J0D01*
G01*
G37*
%TD.AperFunction*%
%TO.P,Q5,5*%
%TA.AperFunction,SMDPad,CuDef*%
G36*
G01*
X10945000Y-20090000D02*
X10645000Y-20090000D01*
G75*
G02*
X10495000Y-19940000I0J150000D01*
G01*
X10495000Y-18290000D01*
G75*
G02*
X10645000Y-18140000I150000J0D01*
G01*
X10945000Y-18140000D01*
G75*
G02*
X11095000Y-18290000I0J-150000D01*
G01*
X11095000Y-19940000D01*
G75*
G02*
X10945000Y-20090000I-150000J0D01*
G01*
G37*
%TD.AperFunction*%
%TO.P,Q5,4*%
%TO.N,Net-(Q5-Pad4)*%
%TA.AperFunction,SMDPad,CuDef*%
G36*
G01*
X10945000Y-25040000D02*
X10645000Y-25040000D01*
G75*
G02*
X10495000Y-24890000I0J150000D01*
G01*
X10495000Y-23240000D01*
G75*
G02*
X10645000Y-23090000I150000J0D01*
G01*
X10945000Y-23090000D01*
G75*
G02*
X11095000Y-23240000I0J-150000D01*
G01*
X11095000Y-24890000D01*
G75*
G02*
X10945000Y-25040000I-150000J0D01*
G01*
G37*
%TD.AperFunction*%
%TO.P,Q5,3*%
%TO.N,GND*%
%TA.AperFunction,SMDPad,CuDef*%
G36*
G01*
X12215000Y-25040000D02*
X11915000Y-25040000D01*
G75*
G02*
X11765000Y-24890000I0J150000D01*
G01*
X11765000Y-23240000D01*
G75*
G02*
X11915000Y-23090000I150000J0D01*
G01*
X12215000Y-23090000D01*
G75*
G02*
X12365000Y-23240000I0J-150000D01*
G01*
X12365000Y-24890000D01*
G75*
G02*
X12215000Y-25040000I-150000J0D01*
G01*
G37*
%TD.AperFunction*%
%TO.P,Q5,2*%
%TA.AperFunction,SMDPad,CuDef*%
G36*
G01*
X13485000Y-25040000D02*
X13185000Y-25040000D01*
G75*
G02*
X13035000Y-24890000I0J150000D01*
G01*
X13035000Y-23240000D01*
G75*
G02*
X13185000Y-23090000I150000J0D01*
G01*
X13485000Y-23090000D01*
G75*
G02*
X13635000Y-23240000I0J-150000D01*
G01*
X13635000Y-24890000D01*
G75*
G02*
X13485000Y-25040000I-150000J0D01*
G01*
G37*
%TD.AperFunction*%
%TO.P,Q5,1*%
%TA.AperFunction,SMDPad,CuDef*%
G36*
G01*
X14755000Y-25040000D02*
X14455000Y-25040000D01*
G75*
G02*
X14305000Y-24890000I0J150000D01*
G01*
X14305000Y-23240000D01*
G75*
G02*
X14455000Y-23090000I150000J0D01*
G01*
X14755000Y-23090000D01*
G75*
G02*
X14905000Y-23240000I0J-150000D01*
G01*
X14905000Y-24890000D01*
G75*
G02*
X14755000Y-25040000I-150000J0D01*
G01*
G37*
%TD.AperFunction*%
%TD*%
%TO.P,Q4,8*%
%TO.N,Net-(D3-Pad2)*%
%TA.AperFunction,SMDPad,CuDef*%
G36*
G01*
X-21740000Y-27535000D02*
X-21440000Y-27535000D01*
G75*
G02*
X-21290000Y-27685000I0J-150000D01*
G01*
X-21290000Y-29335000D01*
G75*
G02*
X-21440000Y-29485000I-150000J0D01*
G01*
X-21740000Y-29485000D01*
G75*
G02*
X-21890000Y-29335000I0J150000D01*
G01*
X-21890000Y-27685000D01*
G75*
G02*
X-21740000Y-27535000I150000J0D01*
G01*
G37*
%TD.AperFunction*%
%TO.P,Q4,7*%
%TA.AperFunction,SMDPad,CuDef*%
G36*
G01*
X-20470000Y-27535000D02*
X-20170000Y-27535000D01*
G75*
G02*
X-20020000Y-27685000I0J-150000D01*
G01*
X-20020000Y-29335000D01*
G75*
G02*
X-20170000Y-29485000I-150000J0D01*
G01*
X-20470000Y-29485000D01*
G75*
G02*
X-20620000Y-29335000I0J150000D01*
G01*
X-20620000Y-27685000D01*
G75*
G02*
X-20470000Y-27535000I150000J0D01*
G01*
G37*
%TD.AperFunction*%
%TO.P,Q4,6*%
%TA.AperFunction,SMDPad,CuDef*%
G36*
G01*
X-19200000Y-27535000D02*
X-18900000Y-27535000D01*
G75*
G02*
X-18750000Y-27685000I0J-150000D01*
G01*
X-18750000Y-29335000D01*
G75*
G02*
X-18900000Y-29485000I-150000J0D01*
G01*
X-19200000Y-29485000D01*
G75*
G02*
X-19350000Y-29335000I0J150000D01*
G01*
X-19350000Y-27685000D01*
G75*
G02*
X-19200000Y-27535000I150000J0D01*
G01*
G37*
%TD.AperFunction*%
%TO.P,Q4,5*%
%TA.AperFunction,SMDPad,CuDef*%
G36*
G01*
X-17930000Y-27535000D02*
X-17630000Y-27535000D01*
G75*
G02*
X-17480000Y-27685000I0J-150000D01*
G01*
X-17480000Y-29335000D01*
G75*
G02*
X-17630000Y-29485000I-150000J0D01*
G01*
X-17930000Y-29485000D01*
G75*
G02*
X-18080000Y-29335000I0J150000D01*
G01*
X-18080000Y-27685000D01*
G75*
G02*
X-17930000Y-27535000I150000J0D01*
G01*
G37*
%TD.AperFunction*%
%TO.P,Q4,4*%
%TO.N,Net-(Q4-Pad4)*%
%TA.AperFunction,SMDPad,CuDef*%
G36*
G01*
X-17930000Y-22585000D02*
X-17630000Y-22585000D01*
G75*
G02*
X-17480000Y-22735000I0J-150000D01*
G01*
X-17480000Y-24385000D01*
G75*
G02*
X-17630000Y-24535000I-150000J0D01*
G01*
X-17930000Y-24535000D01*
G75*
G02*
X-18080000Y-24385000I0J150000D01*
G01*
X-18080000Y-22735000D01*
G75*
G02*
X-17930000Y-22585000I150000J0D01*
G01*
G37*
%TD.AperFunction*%
%TO.P,Q4,3*%
%TO.N,GND*%
%TA.AperFunction,SMDPad,CuDef*%
G36*
G01*
X-19200000Y-22585000D02*
X-18900000Y-22585000D01*
G75*
G02*
X-18750000Y-22735000I0J-150000D01*
G01*
X-18750000Y-24385000D01*
G75*
G02*
X-18900000Y-24535000I-150000J0D01*
G01*
X-19200000Y-24535000D01*
G75*
G02*
X-19350000Y-24385000I0J150000D01*
G01*
X-19350000Y-22735000D01*
G75*
G02*
X-19200000Y-22585000I150000J0D01*
G01*
G37*
%TD.AperFunction*%
%TO.P,Q4,2*%
%TA.AperFunction,SMDPad,CuDef*%
G36*
G01*
X-20470000Y-22585000D02*
X-20170000Y-22585000D01*
G75*
G02*
X-20020000Y-22735000I0J-150000D01*
G01*
X-20020000Y-24385000D01*
G75*
G02*
X-20170000Y-24535000I-150000J0D01*
G01*
X-20470000Y-24535000D01*
G75*
G02*
X-20620000Y-24385000I0J150000D01*
G01*
X-20620000Y-22735000D01*
G75*
G02*
X-20470000Y-22585000I150000J0D01*
G01*
G37*
%TD.AperFunction*%
%TO.P,Q4,1*%
%TA.AperFunction,SMDPad,CuDef*%
G36*
G01*
X-21740000Y-22585000D02*
X-21440000Y-22585000D01*
G75*
G02*
X-21290000Y-22735000I0J-150000D01*
G01*
X-21290000Y-24385000D01*
G75*
G02*
X-21440000Y-24535000I-150000J0D01*
G01*
X-21740000Y-24535000D01*
G75*
G02*
X-21890000Y-24385000I0J150000D01*
G01*
X-21890000Y-22735000D01*
G75*
G02*
X-21740000Y-22585000I150000J0D01*
G01*
G37*
%TD.AperFunction*%
%TD*%
%TO.P,Q3,3*%
%TO.N,Net-(Q3-Pad3)*%
X33385000Y-8890000D03*
%TO.P,Q3,2*%
%TO.N,GND*%
X31385000Y-7940000D03*
%TO.P,Q3,1*%
%TO.N,Net-(Q3-Pad1)*%
X31385000Y-9840000D03*
%TD*%
D25*
%TO.P,Q2,3*%
%TO.N,Net-(BZ1-Pad1)*%
X34290000Y-27940000D03*
%TO.P,Q2,2*%
%TO.N,Net-(JP1-Pad2)*%
X33340000Y-29940000D03*
%TO.P,Q2,1*%
%TO.N,Net-(D1-Pad1)*%
X35240000Y-29940000D03*
%TD*%
D20*
%TO.P,Q1,3*%
%TO.N,Net-(J3-Pad2)*%
X-10255000Y-26355000D03*
%TO.P,Q1,2*%
%TO.N,Net-(J3-Pad1)*%
X-8255000Y-27305000D03*
%TO.P,Q1,1*%
%TO.N,Net-(Q1-Pad1)*%
X-8255000Y-25405000D03*
%TD*%
D19*
%TO.P,LS1,2*%
%TO.N,GND*%
X34290000Y27940000D03*
%TO.P,LS1,1*%
%TO.N,Net-(C16-Pad2)*%
%TA.AperFunction,ComponentPad*%
G36*
G01*
X33444999Y31350000D02*
X35135001Y31350000D01*
G75*
G02*
X35385000Y31100001I0J-249999D01*
G01*
X35385000Y29859999D01*
G75*
G02*
X35135001Y29610000I-249999J0D01*
G01*
X33444999Y29610000D01*
G75*
G02*
X33195000Y29859999I0J249999D01*
G01*
X33195000Y31100001D01*
G75*
G02*
X33444999Y31350000I249999J0D01*
G01*
G37*
%TD.AperFunction*%
%TD*%
D26*
%TO.P,L2,2*%
%TO.N,Net-(C15-Pad1)*%
X15160000Y35560000D03*
%TO.P,L2,1*%
%TO.N,Net-(C14-Pad1)*%
X10160000Y35560000D03*
%TD*%
%TO.P,L1,2*%
%TO.N,Net-(C14-Pad1)*%
X3730000Y35560000D03*
%TO.P,L1,1*%
%TO.N,Net-(D7-Pad2)*%
X-1270000Y35560000D03*
%TD*%
D27*
%TO.P,JP2,2*%
%TO.N,Net-(JP2-Pad2)*%
X19050000Y33020000D03*
%TO.P,JP2,1*%
%TO.N,Net-(C15-Pad1)*%
X19050000Y34320000D03*
%TD*%
D28*
%TO.P,JP1,2*%
%TO.N,Net-(JP1-Pad2)*%
X27970000Y-20320000D03*
%TO.P,JP1,1*%
%TO.N,Net-(BT1-Pad1)*%
X26670000Y-20320000D03*
%TD*%
D19*
%TO.P,J7,3*%
%TO.N,GND*%
X17145000Y-22860000D03*
%TO.P,J7,2*%
%TO.N,Net-(D4-Pad2)*%
X17145000Y-20320000D03*
%TO.P,J7,1*%
%TO.N,Net-(D4-Pad1)*%
%TA.AperFunction,ComponentPad*%
G36*
G01*
X16299999Y-16910000D02*
X17990001Y-16910000D01*
G75*
G02*
X18240000Y-17159999I0J-249999D01*
G01*
X18240000Y-18400001D01*
G75*
G02*
X17990001Y-18650000I-249999J0D01*
G01*
X16299999Y-18650000D01*
G75*
G02*
X16050000Y-18400001I0J249999D01*
G01*
X16050000Y-17159999D01*
G75*
G02*
X16299999Y-16910000I249999J0D01*
G01*
G37*
%TD.AperFunction*%
%TD*%
%TO.P,J6,3*%
%TO.N,GND*%
X-24130000Y-22860000D03*
%TO.P,J6,2*%
%TO.N,Net-(D3-Pad2)*%
X-24130000Y-25400000D03*
%TO.P,J6,1*%
%TO.N,Net-(D3-Pad1)*%
%TA.AperFunction,ComponentPad*%
G36*
G01*
X-23284999Y-28810000D02*
X-24975001Y-28810000D01*
G75*
G02*
X-25225000Y-28560001I0J249999D01*
G01*
X-25225000Y-27319999D01*
G75*
G02*
X-24975001Y-27070000I249999J0D01*
G01*
X-23284999Y-27070000D01*
G75*
G02*
X-23035000Y-27319999I0J-249999D01*
G01*
X-23035000Y-28560001D01*
G75*
G02*
X-23284999Y-28810000I-249999J0D01*
G01*
G37*
%TD.AperFunction*%
%TD*%
%TO.P,J5,4*%
%TO.N,+5V*%
X-17780000Y0D03*
%TO.P,J5,3*%
%TO.N,/TX*%
X-17780000Y2540000D03*
%TO.P,J5,2*%
%TO.N,/RX*%
X-17780000Y5080000D03*
%TO.P,J5,1*%
%TO.N,GND*%
%TA.AperFunction,ComponentPad*%
G36*
G01*
X-18625001Y8490000D02*
X-16934999Y8490000D01*
G75*
G02*
X-16685000Y8240001I0J-249999D01*
G01*
X-16685000Y6999999D01*
G75*
G02*
X-16934999Y6750000I-249999J0D01*
G01*
X-18625001Y6750000D01*
G75*
G02*
X-18875000Y6999999I0J249999D01*
G01*
X-18875000Y8240001D01*
G75*
G02*
X-18625001Y8490000I249999J0D01*
G01*
G37*
%TD.AperFunction*%
%TD*%
D29*
%TO.P,J4,6*%
%TO.N,GND*%
X7620000Y-17780000D03*
%TO.P,J4,4*%
%TO.N,Net-(J4-Pad4)*%
X7620000Y-15240000D03*
%TO.P,J4,2*%
%TO.N,+5V*%
X7620000Y-12700000D03*
%TO.P,J4,5*%
%TO.N,/!RST*%
X5080000Y-17780000D03*
%TO.P,J4,3*%
%TO.N,/SCK*%
X5080000Y-15240000D03*
%TO.P,J4,1*%
%TO.N,/MISO*%
%TA.AperFunction,ComponentPad*%
G36*
G01*
X4230000Y-13300000D02*
X4230000Y-12100000D01*
G75*
G02*
X4480000Y-11850000I250000J0D01*
G01*
X5680000Y-11850000D01*
G75*
G02*
X5930000Y-12100000I0J-250000D01*
G01*
X5930000Y-13300000D01*
G75*
G02*
X5680000Y-13550000I-250000J0D01*
G01*
X4480000Y-13550000D01*
G75*
G02*
X4230000Y-13300000I0J250000D01*
G01*
G37*
%TD.AperFunction*%
%TD*%
D12*
%TO.P,J3,2*%
%TO.N,Net-(J3-Pad2)*%
X-10160000Y-31750000D03*
%TO.P,J3,1*%
%TO.N,Net-(J3-Pad1)*%
%TA.AperFunction,ComponentPad*%
G36*
G01*
X-6750000Y-30904999D02*
X-6750000Y-32595001D01*
G75*
G02*
X-6999999Y-32845000I-249999J0D01*
G01*
X-8240001Y-32845000D01*
G75*
G02*
X-8490000Y-32595001I0J249999D01*
G01*
X-8490000Y-30904999D01*
G75*
G02*
X-8240001Y-30655000I249999J0D01*
G01*
X-6999999Y-30655000D01*
G75*
G02*
X-6750000Y-30904999I0J-249999D01*
G01*
G37*
%TD.AperFunction*%
%TD*%
D19*
%TO.P,J2,4*%
%TO.N,/SCL*%
X2540000Y10160000D03*
%TO.P,J2,3*%
%TO.N,Net-(J2-Pad3)*%
X2540000Y7620000D03*
%TO.P,J2,2*%
%TO.N,+5V*%
X2540000Y5080000D03*
%TO.P,J2,1*%
%TO.N,/SDA*%
%TA.AperFunction,ComponentPad*%
G36*
G01*
X3385001Y1670000D02*
X1694999Y1670000D01*
G75*
G02*
X1445000Y1919999I0J249999D01*
G01*
X1445000Y3160001D01*
G75*
G02*
X1694999Y3410000I249999J0D01*
G01*
X3385001Y3410000D01*
G75*
G02*
X3635000Y3160001I0J-249999D01*
G01*
X3635000Y1919999D01*
G75*
G02*
X3385001Y1670000I-249999J0D01*
G01*
G37*
%TD.AperFunction*%
%TD*%
%TO.P,J1,3*%
%TO.N,GND*%
%TA.AperFunction,ComponentPad*%
G36*
G01*
X-30340000Y36500000D02*
X-28590000Y36500000D01*
G75*
G02*
X-27715000Y35625000I0J-875000D01*
G01*
X-27715000Y33875000D01*
G75*
G02*
X-28590000Y33000000I-875000J0D01*
G01*
X-30340000Y33000000D01*
G75*
G02*
X-31215000Y33875000I0J875000D01*
G01*
X-31215000Y35625000D01*
G75*
G02*
X-30340000Y36500000I875000J0D01*
G01*
G37*
%TD.AperFunction*%
%TO.P,J1,2*%
%TA.AperFunction,ComponentPad*%
G36*
G01*
X-25765000Y39250000D02*
X-23765000Y39250000D01*
G75*
G02*
X-23015000Y38500000I0J-750000D01*
G01*
X-23015000Y37000000D01*
G75*
G02*
X-23765000Y36250000I-750000J0D01*
G01*
X-25765000Y36250000D01*
G75*
G02*
X-26515000Y37000000I0J750000D01*
G01*
X-26515000Y38500000D01*
G75*
G02*
X-25765000Y39250000I750000J0D01*
G01*
G37*
%TD.AperFunction*%
D30*
%TO.P,J1,1*%
%TO.N,+5V*%
X-24765000Y31750000D03*
%TD*%
D31*
%TO.P,D8,2*%
%TO.N,GND*%
X-15240000Y24510000D03*
%TO.P,D8,1*%
%TO.N,Net-(D7-Pad2)*%
X-15240000Y21210000D03*
%TD*%
%TO.P,D7,2*%
%TO.N,Net-(D7-Pad2)*%
X-15240000Y30990000D03*
%TO.P,D7,1*%
%TO.N,+5V*%
X-15240000Y34290000D03*
%TD*%
D19*
%TO.P,D6,2*%
%TO.N,+5V*%
X34290000Y21590000D03*
%TO.P,D6,1*%
%TO.N,Net-(D6-Pad1)*%
%TA.AperFunction,ComponentPad*%
G36*
G01*
X35135001Y18180000D02*
X33444999Y18180000D01*
G75*
G02*
X33195000Y18429999I0J249999D01*
G01*
X33195000Y19670001D01*
G75*
G02*
X33444999Y19920000I249999J0D01*
G01*
X35135001Y19920000D01*
G75*
G02*
X35385000Y19670001I0J-249999D01*
G01*
X35385000Y18429999D01*
G75*
G02*
X35135001Y18180000I-249999J0D01*
G01*
G37*
%TD.AperFunction*%
%TD*%
D13*
%TO.P,D5,2*%
%TO.N,Net-(D5-Pad2)*%
X19430000Y15240000D03*
%TO.P,D5,1*%
%TO.N,GND*%
X16130000Y15240000D03*
%TD*%
%TO.P,D2,2*%
%TO.N,+5V*%
X30735000Y3810000D03*
%TO.P,D2,1*%
%TO.N,Net-(C8-Pad1)*%
X34035000Y3810000D03*
%TD*%
D32*
%TO.P,C16,2*%
%TO.N,Net-(C16-Pad2)*%
X25090000Y35560000D03*
D17*
%TO.P,C16,1*%
%TO.N,Net-(C15-Pad1)*%
X21590000Y35560000D03*
%TD*%
D32*
%TO.P,C15,2*%
%TO.N,GND*%
X5080000Y26670000D03*
D17*
%TO.P,C15,1*%
%TO.N,Net-(C15-Pad1)*%
X5080000Y28670000D03*
%TD*%
D32*
%TO.P,C14,2*%
%TO.N,GND*%
X-3175000Y24210000D03*
D17*
%TO.P,C14,1*%
%TO.N,Net-(C14-Pad1)*%
X-3175000Y29210000D03*
%TD*%
%TO.P,C13,2*%
%TO.N,GND*%
%TA.AperFunction,SMDPad,CuDef*%
G36*
G01*
X19700002Y12330000D02*
X18399998Y12330000D01*
G75*
G02*
X18150000Y12579998I0J249998D01*
G01*
X18150000Y13405002D01*
G75*
G02*
X18399998Y13655000I249998J0D01*
G01*
X19700002Y13655000D01*
G75*
G02*
X19950000Y13405002I0J-249998D01*
G01*
X19950000Y12579998D01*
G75*
G02*
X19700002Y12330000I-249998J0D01*
G01*
G37*
%TD.AperFunction*%
%TO.P,C13,1*%
%TO.N,Net-(C13-Pad1)*%
%TA.AperFunction,SMDPad,CuDef*%
G36*
G01*
X19700002Y9205000D02*
X18399998Y9205000D01*
G75*
G02*
X18150000Y9454998I0J249998D01*
G01*
X18150000Y10280002D01*
G75*
G02*
X18399998Y10530000I249998J0D01*
G01*
X19700002Y10530000D01*
G75*
G02*
X19950000Y10280002I0J-249998D01*
G01*
X19950000Y9454998D01*
G75*
G02*
X19700002Y9205000I-249998J0D01*
G01*
G37*
%TD.AperFunction*%
%TD*%
%TO.P,C12,2*%
%TO.N,GND*%
%TA.AperFunction,SMDPad,CuDef*%
G36*
G01*
X11980000Y25180000D02*
X10880000Y25180000D01*
G75*
G02*
X10630000Y25430000I0J250000D01*
G01*
X10630000Y28430000D01*
G75*
G02*
X10880000Y28680000I250000J0D01*
G01*
X11980000Y28680000D01*
G75*
G02*
X12230000Y28430000I0J-250000D01*
G01*
X12230000Y25430000D01*
G75*
G02*
X11980000Y25180000I-250000J0D01*
G01*
G37*
%TD.AperFunction*%
%TO.P,C12,1*%
%TO.N,Net-(C12-Pad1)*%
%TA.AperFunction,SMDPad,CuDef*%
G36*
G01*
X11980000Y19580000D02*
X10880000Y19580000D01*
G75*
G02*
X10630000Y19830000I0J250000D01*
G01*
X10630000Y22830000D01*
G75*
G02*
X10880000Y23080000I250000J0D01*
G01*
X11980000Y23080000D01*
G75*
G02*
X12230000Y22830000I0J-250000D01*
G01*
X12230000Y19830000D01*
G75*
G02*
X11980000Y19580000I-250000J0D01*
G01*
G37*
%TD.AperFunction*%
%TD*%
%TO.P,C11,2*%
%TO.N,GND*%
%TA.AperFunction,SMDPad,CuDef*%
G36*
G01*
X-22490000Y-14589998D02*
X-22490000Y-15890002D01*
G75*
G02*
X-22739998Y-16140000I-249998J0D01*
G01*
X-23565002Y-16140000D01*
G75*
G02*
X-23815000Y-15890002I0J249998D01*
G01*
X-23815000Y-14589998D01*
G75*
G02*
X-23565002Y-14340000I249998J0D01*
G01*
X-22739998Y-14340000D01*
G75*
G02*
X-22490000Y-14589998I0J-249998D01*
G01*
G37*
%TD.AperFunction*%
%TO.P,C11,1*%
%TO.N,Net-(C11-Pad1)*%
%TA.AperFunction,SMDPad,CuDef*%
G36*
G01*
X-19365000Y-14589998D02*
X-19365000Y-15890002D01*
G75*
G02*
X-19614998Y-16140000I-249998J0D01*
G01*
X-20440002Y-16140000D01*
G75*
G02*
X-20690000Y-15890002I0J249998D01*
G01*
X-20690000Y-14589998D01*
G75*
G02*
X-20440002Y-14340000I249998J0D01*
G01*
X-19614998Y-14340000D01*
G75*
G02*
X-19365000Y-14589998I0J-249998D01*
G01*
G37*
%TD.AperFunction*%
%TD*%
%TO.P,C10,2*%
%TO.N,Net-(C10-Pad2)*%
%TA.AperFunction,SMDPad,CuDef*%
G36*
G01*
X-20690000Y-13350002D02*
X-20690000Y-12049998D01*
G75*
G02*
X-20440002Y-11800000I249998J0D01*
G01*
X-19614998Y-11800000D01*
G75*
G02*
X-19365000Y-12049998I0J-249998D01*
G01*
X-19365000Y-13350002D01*
G75*
G02*
X-19614998Y-13600000I-249998J0D01*
G01*
X-20440002Y-13600000D01*
G75*
G02*
X-20690000Y-13350002I0J249998D01*
G01*
G37*
%TD.AperFunction*%
%TO.P,C10,1*%
%TO.N,GND*%
%TA.AperFunction,SMDPad,CuDef*%
G36*
G01*
X-23815000Y-13350002D02*
X-23815000Y-12049998D01*
G75*
G02*
X-23565002Y-11800000I249998J0D01*
G01*
X-22739998Y-11800000D01*
G75*
G02*
X-22490000Y-12049998I0J-249998D01*
G01*
X-22490000Y-13350002D01*
G75*
G02*
X-22739998Y-13600000I-249998J0D01*
G01*
X-23565002Y-13600000D01*
G75*
G02*
X-23815000Y-13350002I0J249998D01*
G01*
G37*
%TD.AperFunction*%
%TD*%
%TO.P,C9,2*%
%TO.N,GND*%
%TA.AperFunction,SMDPad,CuDef*%
G36*
G01*
X-17410000Y13350002D02*
X-17410000Y12049998D01*
G75*
G02*
X-17659998Y11800000I-249998J0D01*
G01*
X-18485002Y11800000D01*
G75*
G02*
X-18735000Y12049998I0J249998D01*
G01*
X-18735000Y13350002D01*
G75*
G02*
X-18485002Y13600000I249998J0D01*
G01*
X-17659998Y13600000D01*
G75*
G02*
X-17410000Y13350002I0J-249998D01*
G01*
G37*
%TD.AperFunction*%
%TO.P,C9,1*%
%TO.N,/!RST*%
%TA.AperFunction,SMDPad,CuDef*%
G36*
G01*
X-14285000Y13350002D02*
X-14285000Y12049998D01*
G75*
G02*
X-14534998Y11800000I-249998J0D01*
G01*
X-15360002Y11800000D01*
G75*
G02*
X-15610000Y12049998I0J249998D01*
G01*
X-15610000Y13350002D01*
G75*
G02*
X-15360002Y13600000I249998J0D01*
G01*
X-14534998Y13600000D01*
G75*
G02*
X-14285000Y13350002I0J-249998D01*
G01*
G37*
%TD.AperFunction*%
%TD*%
D32*
%TO.P,C8,2*%
%TO.N,GND*%
X33020000Y12700000D03*
D17*
%TO.P,C8,1*%
%TO.N,Net-(C8-Pad1)*%
X35020000Y12700000D03*
%TD*%
%TO.P,C7,2*%
%TO.N,GND*%
%TA.AperFunction,SMDPad,CuDef*%
G36*
G01*
X-15890002Y-9790000D02*
X-14589998Y-9790000D01*
G75*
G02*
X-14340000Y-10039998I0J-249998D01*
G01*
X-14340000Y-10865002D01*
G75*
G02*
X-14589998Y-11115000I-249998J0D01*
G01*
X-15890002Y-11115000D01*
G75*
G02*
X-16140000Y-10865002I0J249998D01*
G01*
X-16140000Y-10039998D01*
G75*
G02*
X-15890002Y-9790000I249998J0D01*
G01*
G37*
%TD.AperFunction*%
%TO.P,C7,1*%
%TO.N,+5V*%
%TA.AperFunction,SMDPad,CuDef*%
G36*
G01*
X-15890002Y-6665000D02*
X-14589998Y-6665000D01*
G75*
G02*
X-14340000Y-6914998I0J-249998D01*
G01*
X-14340000Y-7740002D01*
G75*
G02*
X-14589998Y-7990000I-249998J0D01*
G01*
X-15890002Y-7990000D01*
G75*
G02*
X-16140000Y-7740002I0J249998D01*
G01*
X-16140000Y-6914998D01*
G75*
G02*
X-15890002Y-6665000I249998J0D01*
G01*
G37*
%TD.AperFunction*%
%TD*%
%TO.P,C6,2*%
%TO.N,GND*%
%TA.AperFunction,SMDPad,CuDef*%
G36*
G01*
X-6969998Y-9260000D02*
X-8270002Y-9260000D01*
G75*
G02*
X-8520000Y-9010002I0J249998D01*
G01*
X-8520000Y-8184998D01*
G75*
G02*
X-8270002Y-7935000I249998J0D01*
G01*
X-6969998Y-7935000D01*
G75*
G02*
X-6720000Y-8184998I0J-249998D01*
G01*
X-6720000Y-9010002D01*
G75*
G02*
X-6969998Y-9260000I-249998J0D01*
G01*
G37*
%TD.AperFunction*%
%TO.P,C6,1*%
%TO.N,+5V*%
%TA.AperFunction,SMDPad,CuDef*%
G36*
G01*
X-6969998Y-12385000D02*
X-8270002Y-12385000D01*
G75*
G02*
X-8520000Y-12135002I0J249998D01*
G01*
X-8520000Y-11309998D01*
G75*
G02*
X-8270002Y-11060000I249998J0D01*
G01*
X-6969998Y-11060000D01*
G75*
G02*
X-6720000Y-11309998I0J-249998D01*
G01*
X-6720000Y-12135002D01*
G75*
G02*
X-6969998Y-12385000I-249998J0D01*
G01*
G37*
%TD.AperFunction*%
%TD*%
%TO.P,C5,2*%
%TO.N,GND*%
%TA.AperFunction,SMDPad,CuDef*%
G36*
G01*
X-20939998Y35190000D02*
X-22240002Y35190000D01*
G75*
G02*
X-22490000Y35439998I0J249998D01*
G01*
X-22490000Y36265002D01*
G75*
G02*
X-22240002Y36515000I249998J0D01*
G01*
X-20939998Y36515000D01*
G75*
G02*
X-20690000Y36265002I0J-249998D01*
G01*
X-20690000Y35439998D01*
G75*
G02*
X-20939998Y35190000I-249998J0D01*
G01*
G37*
%TD.AperFunction*%
%TO.P,C5,1*%
%TO.N,+5V*%
%TA.AperFunction,SMDPad,CuDef*%
G36*
G01*
X-20939998Y32065000D02*
X-22240002Y32065000D01*
G75*
G02*
X-22490000Y32314998I0J249998D01*
G01*
X-22490000Y33140002D01*
G75*
G02*
X-22240002Y33390000I249998J0D01*
G01*
X-20939998Y33390000D01*
G75*
G02*
X-20690000Y33140002I0J-249998D01*
G01*
X-20690000Y32314998D01*
G75*
G02*
X-20939998Y32065000I-249998J0D01*
G01*
G37*
%TD.AperFunction*%
%TD*%
%TO.P,C4,2*%
%TO.N,GND*%
%TA.AperFunction,SMDPad,CuDef*%
G36*
G01*
X-23715000Y21040000D02*
X-23715000Y22140000D01*
G75*
G02*
X-23465000Y22390000I250000J0D01*
G01*
X-20465000Y22390000D01*
G75*
G02*
X-20215000Y22140000I0J-250000D01*
G01*
X-20215000Y21040000D01*
G75*
G02*
X-20465000Y20790000I-250000J0D01*
G01*
X-23465000Y20790000D01*
G75*
G02*
X-23715000Y21040000I0J250000D01*
G01*
G37*
%TD.AperFunction*%
%TO.P,C4,1*%
%TO.N,+5V*%
%TA.AperFunction,SMDPad,CuDef*%
G36*
G01*
X-29315000Y21040000D02*
X-29315000Y22140000D01*
G75*
G02*
X-29065000Y22390000I250000J0D01*
G01*
X-26065000Y22390000D01*
G75*
G02*
X-25815000Y22140000I0J-250000D01*
G01*
X-25815000Y21040000D01*
G75*
G02*
X-26065000Y20790000I-250000J0D01*
G01*
X-29065000Y20790000D01*
G75*
G02*
X-29315000Y21040000I0J250000D01*
G01*
G37*
%TD.AperFunction*%
%TD*%
%TO.P,C3,2*%
%TO.N,GND*%
%TA.AperFunction,SMDPad,CuDef*%
G36*
G01*
X29829998Y-900000D02*
X31130002Y-900000D01*
G75*
G02*
X31380000Y-1149998I0J-249998D01*
G01*
X31380000Y-1975002D01*
G75*
G02*
X31130002Y-2225000I-249998J0D01*
G01*
X29829998Y-2225000D01*
G75*
G02*
X29580000Y-1975002I0J249998D01*
G01*
X29580000Y-1149998D01*
G75*
G02*
X29829998Y-900000I249998J0D01*
G01*
G37*
%TD.AperFunction*%
%TO.P,C3,1*%
%TO.N,+5V*%
%TA.AperFunction,SMDPad,CuDef*%
G36*
G01*
X29829998Y2225000D02*
X31130002Y2225000D01*
G75*
G02*
X31380000Y1975002I0J-249998D01*
G01*
X31380000Y1149998D01*
G75*
G02*
X31130002Y900000I-249998J0D01*
G01*
X29829998Y900000D01*
G75*
G02*
X29580000Y1149998I0J249998D01*
G01*
X29580000Y1975002D01*
G75*
G02*
X29829998Y2225000I249998J0D01*
G01*
G37*
%TD.AperFunction*%
%TD*%
%TO.P,C17,2*%
%TO.N,GND*%
%TA.AperFunction,SMDPad,CuDef*%
G36*
G01*
X18399998Y-27570000D02*
X19700002Y-27570000D01*
G75*
G02*
X19950000Y-27819998I0J-249998D01*
G01*
X19950000Y-28645002D01*
G75*
G02*
X19700002Y-28895000I-249998J0D01*
G01*
X18399998Y-28895000D01*
G75*
G02*
X18150000Y-28645002I0J249998D01*
G01*
X18150000Y-27819998D01*
G75*
G02*
X18399998Y-27570000I249998J0D01*
G01*
G37*
%TD.AperFunction*%
%TO.P,C17,1*%
%TO.N,/enc_sw*%
%TA.AperFunction,SMDPad,CuDef*%
G36*
G01*
X18399998Y-24445000D02*
X19700002Y-24445000D01*
G75*
G02*
X19950000Y-24694998I0J-249998D01*
G01*
X19950000Y-25520002D01*
G75*
G02*
X19700002Y-25770000I-249998J0D01*
G01*
X18399998Y-25770000D01*
G75*
G02*
X18150000Y-25520002I0J249998D01*
G01*
X18150000Y-24694998D01*
G75*
G02*
X18399998Y-24445000I249998J0D01*
G01*
G37*
%TD.AperFunction*%
%TD*%
D18*
%TO.P,BZ1,2*%
%TO.N,GND*%
X34290000Y-17800000D03*
D33*
%TO.P,BZ1,1*%
%TO.N,Net-(BZ1-Pad1)*%
X34290000Y-25400000D03*
%TD*%
D34*
%TO.P,BT1,2*%
%TO.N,GND*%
X27940000Y6030000D03*
D35*
%TO.P,BT1,1*%
%TO.N,Net-(BT1-Pad1)*%
X27940000Y-13970000D03*
%TD*%
D36*
%TO.N,GND*%
X-30480000Y-20320000D03*
X-30480000Y-10160000D03*
X27940000Y-17780000D03*
X27940000Y-26670000D03*
%TO.N,/BTN_snooze*%
X-22225000Y5080000D03*
X-22225000Y-5080000D03*
%TO.N,+5V*%
X6985000Y-5080000D03*
X6985000Y5080000D03*
X29845000Y21590000D03*
X29845000Y39370000D03*
X12700000Y-13970000D03*
X12700000Y-35560000D03*
X-8890000Y10769990D03*
X-33837764Y10822744D03*
X6985000Y6985000D03*
X6985000Y20955000D03*
X635000Y20955000D03*
X-30480000Y20955000D03*
%TO.N,/!RST*%
X-2540000Y-15240000D03*
X-2540000Y12700000D03*
%TO.N,/MISO*%
X-2793Y-17782793D03*
X0Y-10160000D03*
%TO.N,/enc_clk*%
X-20317207Y-2542793D03*
X-20317207Y-33022793D03*
%TO.N,/enc_dt*%
X-14605000Y-2540000D03*
X-14605000Y-35560000D03*
%TO.N,/audio*%
X8890000Y19050000D03*
X8890000Y-31750000D03*
%TD*%
D37*
%TO.N,GND*%
X-23152500Y-15240000D02*
X-23152500Y-12700000D01*
X-12992500Y-10452500D02*
X-12700000Y-10160000D01*
X-15240000Y-10452500D02*
X-12992500Y-10452500D01*
X-23152500Y-12700000D02*
X-23152500Y-11722500D01*
X21050000Y29210000D02*
X21050000Y28670000D01*
X20640000Y28260000D02*
X19050000Y28260000D01*
X21050000Y28670000D02*
X20640000Y28260000D01*
X-26962500Y7912500D02*
X-26670000Y7620000D01*
X-26962500Y1562500D02*
X-26670000Y1270000D01*
X-10540000Y24510000D02*
X-10160000Y24130000D01*
X-15240000Y24510000D02*
X-10540000Y24510000D01*
D38*
X-10160000Y24130000D02*
X-10160000Y27890000D01*
D37*
X27510000Y-3380000D02*
X27510000Y-5715000D01*
X-26670000Y1270000D02*
X-26118638Y1270000D01*
X-23152500Y-9817500D02*
X-23152500Y-11722500D01*
X-27885000Y15930000D02*
X-26820000Y15930000D01*
X-29210000Y14605000D02*
X-27885000Y15930000D01*
X-16565000Y15930000D02*
X-15240000Y14605000D01*
X-10160000Y19484603D02*
X-9890000Y19214603D01*
X-10160000Y21590000D02*
X-10160000Y19484603D01*
X-21590000Y-23560000D02*
X-20320000Y-23560000D01*
D39*
X-20320000Y-23560000D02*
X-19050000Y-23560000D01*
D37*
X-22290000Y-22860000D02*
X-21590000Y-23560000D01*
X-24130000Y-22860000D02*
X-22290000Y-22860000D01*
D38*
X34290000Y27940000D02*
X24130000Y27940000D01*
X24130000Y27940000D02*
X22130000Y25940000D01*
D37*
X19050000Y28260000D02*
X19050000Y26480000D01*
X19050000Y26480000D02*
X19590000Y25940000D01*
D38*
X22130000Y25940000D02*
X19590000Y25940000D01*
D37*
X19037500Y12980000D02*
X19050000Y12992500D01*
X16510000Y12980000D02*
X19037500Y12980000D01*
X16130000Y13360000D02*
X16510000Y12980000D01*
X16130000Y15240000D02*
X16130000Y13360000D01*
X-17780000Y7620000D02*
X-26670000Y7620000D01*
X-24130000Y-1905000D02*
X-26035000Y-3810000D01*
X-26035000Y-3810000D02*
X-26035000Y-8890000D01*
X-24130000Y0D02*
X-24130000Y-1905000D01*
X-26035000Y-8890000D02*
X-25107500Y-9817500D01*
X-25400000Y1270000D02*
X-24130000Y0D01*
X-25107500Y-9817500D02*
X-23152500Y-9817500D01*
X-26670000Y1270000D02*
X-25400000Y1270000D01*
D38*
X19235000Y26295000D02*
X19590000Y25940000D01*
D37*
X16230000Y26275000D02*
X16250000Y26295000D01*
X16230000Y21590000D02*
X16230000Y26275000D01*
D38*
X16250000Y26295000D02*
X19235000Y26295000D01*
X11170000Y26670000D02*
X11430000Y26930000D01*
X5080000Y26670000D02*
X11170000Y26670000D01*
X15615000Y26930000D02*
X16250000Y26295000D01*
X11430000Y26930000D02*
X15615000Y26930000D01*
D37*
X-15930013Y19230011D02*
X-19050000Y22349998D01*
X-12755097Y19230011D02*
X-15930013Y19230011D01*
X-12739689Y19214603D02*
X-12755097Y19230011D01*
X-9890000Y19214603D02*
X-12739689Y19214603D01*
D38*
X-19970000Y37750000D02*
X-19050000Y36830000D01*
X-26465000Y37750000D02*
X-29465000Y34750000D01*
X-24765000Y37750000D02*
X-26465000Y37750000D01*
D37*
X-21590000Y37400000D02*
X-21940000Y37750000D01*
X-21590000Y35852500D02*
X-21590000Y37400000D01*
D38*
X-21940000Y37750000D02*
X-19970000Y37750000D01*
X-24765000Y37750000D02*
X-21940000Y37750000D01*
X-19095010Y24084990D02*
X-19050000Y24130000D01*
X-19050000Y22349998D02*
X-19050000Y24130000D01*
D37*
X27510000Y-2970000D02*
X27510000Y-3380000D01*
X-5005088Y13970000D02*
X-4475087Y14500001D01*
X-10795000Y13970000D02*
X-5005088Y13970000D01*
X-11430000Y14605000D02*
X-10795000Y13970000D01*
X-15240000Y14605000D02*
X-11430000Y14605000D01*
X-18072500Y12700000D02*
X-18072500Y15896500D01*
X-18072500Y15896500D02*
X-18106000Y15930000D01*
X-18106000Y15930000D02*
X-16565000Y15930000D01*
X-20320000Y15930000D02*
X-18106000Y15930000D01*
X27510000Y-9730000D02*
X34290000Y-16510000D01*
X34290000Y-16510000D02*
X34290000Y-17800000D01*
X27620000Y-7940000D02*
X27510000Y-8050000D01*
X31385000Y-7940000D02*
X27620000Y-7940000D01*
X27510000Y-8050000D02*
X27510000Y-9730000D01*
X27510000Y-5715000D02*
X27510000Y-8050000D01*
X34277500Y-1562500D02*
X34290000Y-1550000D01*
X30480000Y-1562500D02*
X30480000Y-2540000D01*
X28575000Y-4445000D02*
X27510000Y-4445000D01*
X30480000Y-2540000D02*
X28575000Y-4445000D01*
X30480000Y-1562500D02*
X32296500Y-1562500D01*
X32296500Y-1562500D02*
X34277500Y-1562500D01*
X16230000Y21590000D02*
X14605000Y19965000D01*
X14605000Y16765000D02*
X16130000Y15240000D01*
X14605000Y19965000D02*
X14605000Y16765000D01*
X-15240000Y-10452500D02*
X-15240000Y-10160000D01*
X-15240000Y-10160000D02*
X-15875000Y-9525000D01*
X-22860000Y-9525000D02*
X-23152500Y-9817500D01*
X-15875000Y-9525000D02*
X-22860000Y-9525000D01*
D38*
X-715000Y26670000D02*
X-3175000Y24210000D01*
X5080000Y26670000D02*
X-715000Y26670000D01*
D37*
X-3978638Y24130000D02*
X-10160000Y24130000D01*
X-3898638Y24210000D02*
X-3978638Y24130000D01*
X-3175000Y24210000D02*
X-3898638Y24210000D01*
D38*
X-10160000Y24130000D02*
X-10160000Y21590000D01*
D37*
X-29210000Y14605000D02*
X-29210000Y8890000D01*
X-27940000Y7620000D02*
X-26670000Y7620000D01*
X-29210000Y8890000D02*
X-27940000Y7620000D01*
X-26670000Y1270000D02*
X-30311362Y1270000D01*
X-31115000Y6985000D02*
X-29210000Y8890000D01*
X-31115000Y2073638D02*
X-31115000Y6985000D01*
X33020000Y8935002D02*
X33020000Y12700000D01*
X33020000Y6985000D02*
X33020000Y8935002D01*
X32065000Y6030000D02*
X33020000Y6985000D01*
X27940000Y6030000D02*
X32065000Y6030000D01*
X32296500Y5798500D02*
X32065000Y6030000D01*
X32296500Y-1562500D02*
X32296500Y5798500D01*
X13335000Y-23495000D02*
X13335000Y-24065000D01*
D39*
X12065000Y-22225000D02*
X12029990Y-22189990D01*
X12065000Y-24065000D02*
X12065000Y-22225000D01*
D37*
X12700000Y-22860000D02*
X13335000Y-23495000D01*
X12029990Y-22189990D02*
X12700000Y-22860000D01*
D39*
X14605000Y-24065000D02*
X14605000Y-22860000D01*
D37*
X14605000Y-22860000D02*
X12700000Y-22860000D01*
X17145000Y-22860000D02*
X14605000Y-22860000D01*
X6985000Y-18415000D02*
X7620000Y-17780000D01*
X6985000Y-21421362D02*
X6985000Y-18415000D01*
X7753628Y-22189990D02*
X6985000Y-21421362D01*
X12029990Y-22189990D02*
X7753628Y-22189990D01*
X19050000Y-30480000D02*
X19050000Y-28232500D01*
X17145000Y-22860000D02*
X17145000Y-26327500D01*
X17487500Y-26670000D02*
X17145000Y-26327500D01*
X19050000Y-26670000D02*
X17487500Y-26670000D01*
X19050000Y-28232500D02*
X19050000Y-26670000D01*
X25400000Y-26670000D02*
X19050000Y-26670000D01*
X14262500Y-29210000D02*
X14262500Y-26670000D01*
X14262500Y-26670000D02*
X17487500Y-26670000D01*
X-26820000Y15930000D02*
X-20320000Y15930000D01*
X-30480000Y-10160000D02*
X-31115000Y-9525000D01*
X-30311362Y1270000D02*
X-31115000Y1270000D01*
X-31115000Y1270000D02*
X-31115000Y2073638D01*
X-31115000Y-9525000D02*
X-31115000Y1270000D01*
X-28154998Y-20320000D02*
X-30480000Y-20320000D01*
X-25614998Y-22860000D02*
X-28154998Y-20320000D01*
X-24130000Y-22860000D02*
X-25614998Y-22860000D01*
X27960000Y-17800000D02*
X27940000Y-17780000D01*
X34290000Y-17800000D02*
X27960000Y-17800000D01*
X26670000Y-30480000D02*
X26670000Y-26670000D01*
X26670000Y-26670000D02*
X27940000Y-26670000D01*
X25400000Y-26670000D02*
X26670000Y-26670000D01*
X30985010Y-28445010D02*
X29210000Y-26670000D01*
X30985010Y-36716352D02*
X30985010Y-28445010D01*
X28911342Y-38790020D02*
X30985010Y-36716352D01*
X-23224982Y-38790020D02*
X28911342Y-38790020D01*
X-30480000Y-31535002D02*
X-23224982Y-38790020D01*
X29210000Y-26670000D02*
X27940000Y-26670000D01*
X-30480000Y-20320000D02*
X-30480000Y-31535002D01*
D38*
X-19050000Y24130000D02*
X-19050000Y26035000D01*
D37*
X-4475087Y14500001D02*
X4549999Y14500001D01*
X5080000Y13970000D02*
X5080000Y11710000D01*
X4549999Y14500001D02*
X5080000Y13970000D01*
X-6642500Y-7620000D02*
X-7620000Y-8597500D01*
X-5080000Y-7620000D02*
X-6642500Y-7620000D01*
X-12700000Y-10160000D02*
X-8255000Y-10160000D01*
X-8255000Y-10160000D02*
X-7620000Y-9525000D01*
X-7620000Y-9525000D02*
X-7620000Y-8597500D01*
X20955000Y-3175000D02*
X18210000Y-3175000D01*
X27510000Y-3175000D02*
X20955000Y-3175000D01*
X18210000Y-5715000D02*
X18210000Y-1905000D01*
D39*
X18210000Y-1905000D02*
X18210000Y-635000D01*
D37*
X-19809998Y21590000D02*
X-19050000Y22349998D01*
X-21965000Y21590000D02*
X-19809998Y21590000D01*
X-21035000Y27940000D02*
X-19050000Y27940000D01*
D38*
X-19050000Y27940000D02*
X-19050000Y36830000D01*
X-19050000Y26035000D02*
X-19050000Y27940000D01*
D37*
X-24324989Y19230011D02*
X-21965000Y21590000D01*
X-32010019Y15764806D02*
X-28544814Y19230011D01*
X-33915020Y8199903D02*
X-32010020Y10104903D01*
X-28544814Y19230011D02*
X-24324989Y19230011D01*
X-32010020Y10104903D02*
X-32010019Y15764806D01*
X-33915020Y-16884980D02*
X-33915020Y8199903D01*
X-30480000Y-20320000D02*
X-33915020Y-16884980D01*
D39*
X27510000Y-1905000D02*
X27510000Y-3175000D01*
D37*
%TO.N,Net-(BT1-Pad1)*%
X24130000Y-8890000D02*
X17780000Y-8890000D01*
X17780000Y-8890000D02*
X16510000Y-7620000D01*
X27940000Y-13970000D02*
X27940000Y-12700000D01*
X27940000Y-12700000D02*
X24130000Y-8890000D01*
X16510000Y-7620000D02*
X15875000Y-6985000D01*
X15875000Y-6985000D02*
X15875000Y-1270000D01*
X15875000Y-1270000D02*
X15875000Y-635000D01*
D39*
X17111482Y635000D02*
X18210000Y635000D01*
X15875000Y-601482D02*
X17111482Y635000D01*
X15875000Y-635000D02*
X15875000Y-601482D01*
D37*
X27940000Y-13970000D02*
X25660020Y-16249980D01*
X26569999Y-20219999D02*
X26569999Y-20320000D01*
X25660020Y-19310020D02*
X26569999Y-20219999D01*
X25660020Y-16249980D02*
X25660020Y-19310020D01*
%TO.N,Net-(BZ1-Pad1)*%
X34290000Y-27940000D02*
X34290000Y-25400000D01*
%TO.N,/BTN_stop*%
X-26962500Y-1562500D02*
X-26670000Y-1270000D01*
X-15875000Y-19050000D02*
X-24905086Y-19050000D01*
X-14605000Y-17780000D02*
X-15875000Y-19050000D01*
X-12700000Y-17780000D02*
X-14605000Y-17780000D01*
X-26950000Y-1550000D02*
X-26670000Y-1270000D01*
X-28220000Y-1270000D02*
X-26670000Y-1270000D01*
X-29210000Y-280000D02*
X-28220000Y-1270000D01*
X-27435010Y-2035010D02*
X-26670000Y-1270000D01*
X-27435010Y-16520076D02*
X-27435010Y-2035010D01*
X-24905086Y-19050000D02*
X-27435010Y-16520076D01*
%TO.N,/BTN_snooze*%
X-26670000Y5080000D02*
X-22225000Y5080000D01*
X-22225000Y-5080000D02*
X-12700000Y-5080000D01*
X-20320000Y5080000D02*
X-22225000Y5080000D01*
%TO.N,+5V*%
X2820000Y5360000D02*
X2540000Y5080000D01*
X-12992500Y-7327500D02*
X-12700000Y-7620000D01*
X-15240000Y-7327500D02*
X-12992500Y-7327500D01*
X0Y7620000D02*
X0Y5360000D01*
X2260000Y5360000D02*
X2540000Y5080000D01*
X0Y5360000D02*
X2260000Y5360000D01*
X-9450000Y34850000D02*
X-10160000Y35560000D01*
D38*
X-5080000Y34850000D02*
X-9450000Y34850000D01*
X-10160000Y35560000D02*
X-10160000Y37440000D01*
D37*
X-15240000Y34290000D02*
X-10160000Y34290000D01*
D38*
X-10160000Y34290000D02*
X-10160000Y35560000D01*
X-10160000Y31140000D02*
X-10160000Y34290000D01*
D37*
X-15240000Y-7327500D02*
X-20612500Y-7327500D01*
X-20320000Y0D02*
X-17780000Y0D01*
X-22729990Y-2484902D02*
X-24130000Y-3884912D01*
X-22729990Y-2409990D02*
X-22729990Y-2484902D01*
X-20320000Y0D02*
X-22729990Y-2409990D01*
X-24130000Y-3884912D02*
X-24130000Y-5839002D01*
X-22641502Y-7327500D02*
X-20612500Y-7327500D01*
X-24130000Y-5839002D02*
X-22641502Y-7327500D01*
X2540000Y5080000D02*
X6985000Y5080000D01*
X7265000Y4800000D02*
X6985000Y5080000D01*
D38*
X-3339999Y33109999D02*
X-5080000Y34850000D01*
X1270000Y34473998D02*
X-93999Y33109999D01*
X-27588787Y41240011D02*
X669989Y41240011D01*
X-32365010Y36463788D02*
X-27588787Y41240011D01*
X-32365010Y33036212D02*
X-32365010Y36463788D01*
X-93999Y33109999D02*
X-3339999Y33109999D01*
X-31078798Y31750000D02*
X-32365010Y33036212D01*
X-24765000Y31750000D02*
X-31078798Y31750000D01*
X669989Y41240011D02*
X27339989Y41240011D01*
X1270000Y40640000D02*
X669989Y41240011D01*
X1270000Y34473998D02*
X1270000Y40640000D01*
D37*
X34290000Y21590000D02*
X29845000Y21590000D01*
D38*
X27974989Y41240011D02*
X27339989Y41240011D01*
X29845000Y39370000D02*
X27974989Y41240011D01*
D37*
X-22567500Y31750000D02*
X-21590000Y32727500D01*
X-24765000Y31750000D02*
X-22567500Y31750000D01*
X-26000Y7594000D02*
X0Y7620000D01*
X-2540000Y7594000D02*
X-26000Y7594000D01*
D39*
X30137500Y1905000D02*
X30480000Y1562500D01*
X27510000Y1905000D02*
X30137500Y1905000D01*
D37*
X30480000Y3555000D02*
X30735000Y3810000D01*
X30480000Y1562500D02*
X30480000Y3555000D01*
X9058638Y5080000D02*
X10328638Y6350000D01*
X6985000Y5080000D02*
X9058638Y5080000D01*
X10328638Y6350000D02*
X13335000Y6350000D01*
X13335000Y6350000D02*
X13970000Y5715000D01*
X13970000Y5715000D02*
X13970000Y4800000D01*
X13970000Y4800000D02*
X21870000Y4800000D01*
X21870000Y4800000D02*
X24765000Y1905000D01*
X-28805010Y3224990D02*
X-29210000Y2820000D01*
X-23544990Y3224990D02*
X-28805010Y3224990D01*
X-20320000Y1980000D02*
X-20320000Y0D01*
X-22300000Y1980000D02*
X-23544990Y3224990D01*
X-20320000Y1980000D02*
X-22300000Y1980000D01*
D39*
X24765000Y1905000D02*
X27510000Y1905000D01*
D37*
X21590000Y-35840000D02*
X24130000Y-35840000D01*
X26670000Y-35840000D02*
X24130000Y-35840000D01*
X7620000Y-5715000D02*
X6985000Y-5080000D01*
X7620000Y-12700000D02*
X7620000Y-5715000D01*
X1270000Y-5080000D02*
X6985000Y-5080000D01*
X-2540000Y-8890000D02*
X1270000Y-5080000D01*
X-2540000Y-10160000D02*
X-2540000Y-8890000D01*
X-5080000Y-12700000D02*
X-2540000Y-10160000D01*
X11430000Y-12700000D02*
X12700000Y-13970000D01*
X7620000Y-12700000D02*
X11430000Y-12700000D01*
X12980000Y-35840000D02*
X12700000Y-35560000D01*
X21590000Y-35840000D02*
X12980000Y-35840000D01*
X-8890000Y-6350000D02*
X-8890000Y10769990D01*
X6985000Y5080000D02*
X6985000Y6985000D01*
X6985000Y20955000D02*
X635000Y20955000D01*
X-33837764Y17597236D02*
X-33837764Y17327764D01*
X-30480000Y20955000D02*
X-33837764Y17597236D01*
X-33837764Y10822744D02*
X-33837764Y17327764D01*
X-11710000Y-8610000D02*
X-12700000Y-7620000D01*
X-10160000Y-8610000D02*
X-11710000Y-8610000D01*
X-10160000Y-7620000D02*
X-8890000Y-6350000D01*
X-10160000Y-8610000D02*
X-10160000Y-7620000D01*
X-7632500Y-11710000D02*
X-7620000Y-11722500D01*
X-10160000Y-11710000D02*
X-7632500Y-11710000D01*
X-6057500Y-11722500D02*
X-5080000Y-12700000D01*
X-7620000Y-11722500D02*
X-6057500Y-11722500D01*
X-29845000Y21590000D02*
X-30480000Y20955000D01*
X-27565000Y21590000D02*
X-29845000Y21590000D01*
X-30480000Y23495000D02*
X-26035000Y27940000D01*
X-30480000Y20955000D02*
X-30480000Y23495000D01*
X-26035000Y30480000D02*
X-24765000Y31750000D01*
X-26035000Y27940000D02*
X-26035000Y30480000D01*
%TO.N,Net-(C8-Pad1)*%
X35205000Y1550000D02*
X36830000Y1550000D01*
X34290000Y1550000D02*
X35205000Y1550000D01*
X34290000Y3555000D02*
X34035000Y3810000D01*
X34290000Y1550000D02*
X34290000Y3555000D01*
X35020000Y4795000D02*
X34035000Y3810000D01*
X35020000Y12700000D02*
X35020000Y4795000D01*
%TO.N,/!RST*%
X0Y-15240000D02*
X2540000Y-17780000D01*
X-2540000Y-15240000D02*
X0Y-15240000D01*
X-14960000Y12687500D02*
X-14947500Y12700000D01*
X-14960000Y10160000D02*
X-14960000Y8610000D01*
X-13970000Y7620000D02*
X-12700000Y7620000D01*
X-14960000Y8610000D02*
X-13970000Y7620000D01*
X-2540000Y10694000D02*
X-2540000Y12700000D01*
X2540000Y-17780000D02*
X5080000Y-17780000D01*
X-14869999Y11800001D02*
X-14960000Y11710000D01*
X-14960000Y11710000D02*
X-14960000Y12687500D01*
X-14960000Y10160000D02*
X-14960000Y11710000D01*
X-14817490Y12569990D02*
X-14947500Y12700000D01*
X-4425185Y12569990D02*
X-14817490Y12569990D01*
X-4295175Y12700000D02*
X-4425185Y12569990D01*
X-2540000Y12700000D02*
X-4295175Y12700000D01*
%TO.N,Net-(C10-Pad2)*%
X-12700000Y-12700000D02*
X-16510000Y-12700000D01*
X-17780000Y-11430000D02*
X-17780000Y-12700000D01*
X-17780000Y-12700000D02*
X-16510000Y-12700000D01*
X-20027500Y-12700000D02*
X-17780000Y-12700000D01*
%TO.N,Net-(C11-Pad1)*%
X-12700000Y-15240000D02*
X-16710000Y-15240000D01*
X-17780000Y-16310000D02*
X-17780000Y-15240000D01*
X-17780000Y-15240000D02*
X-16710000Y-15240000D01*
X-20027500Y-15240000D02*
X-17780000Y-15240000D01*
%TO.N,Net-(C12-Pad1)*%
X13970000Y12980000D02*
X11430000Y12980000D01*
X11430000Y21330000D02*
X11430000Y12980000D01*
%TO.N,Net-(C13-Pad1)*%
X19037500Y9880000D02*
X19050000Y9867500D01*
X16510000Y9880000D02*
X19037500Y9880000D01*
X13970000Y9880000D02*
X16510000Y9880000D01*
X13970000Y7900000D02*
X13970000Y9880000D01*
X36830000Y22860000D02*
X35560000Y24130000D01*
X17780000Y22691362D02*
X17780000Y18780000D01*
X36830000Y17780000D02*
X36830000Y22860000D01*
X17530010Y18530010D02*
X17530010Y18415000D01*
X19218638Y24130000D02*
X17780000Y22691362D01*
X35560000Y16510000D02*
X36830000Y17780000D01*
X17780000Y18780000D02*
X17530010Y18530010D01*
X35560000Y24130000D02*
X19218638Y24130000D01*
X33020000Y16510000D02*
X35560000Y16510000D01*
X26377500Y9867500D02*
X33020000Y16510000D01*
X21860000Y9890000D02*
X21882500Y9867500D01*
X21860000Y11750000D02*
X21860000Y9890000D01*
X21882500Y9867500D02*
X26377500Y9867500D01*
X19050000Y9867500D02*
X21882500Y9867500D01*
%TO.N,Net-(C14-Pad1)*%
X5080000Y35560000D02*
X10160000Y35560000D01*
X3730000Y35560000D02*
X5080000Y35560000D01*
X-3810000Y29210000D02*
X0Y29210000D01*
X3730000Y32940000D02*
X3730000Y35560000D01*
X0Y29210000D02*
X3730000Y32940000D01*
%TO.N,Net-(C15-Pad1)*%
X15160000Y35560000D02*
X19050000Y35560000D01*
X19050000Y35560000D02*
X19050000Y34420001D01*
X19050000Y35560000D02*
X21590000Y35560000D01*
X8270000Y28670000D02*
X5080000Y28670000D01*
X15160000Y35560000D02*
X8270000Y28670000D01*
%TO.N,Net-(C16-Pad2)*%
X34290000Y31750000D02*
X34290000Y30480000D01*
X30480000Y35560000D02*
X34290000Y31750000D01*
X25090000Y35560000D02*
X30480000Y35560000D01*
%TO.N,/buzzer*%
X24260010Y-13520107D02*
X24260010Y-21720010D01*
X22169903Y-11430000D02*
X24260010Y-13520107D01*
X24260010Y-21720010D02*
X25400000Y-22860000D01*
X16510000Y-11430000D02*
X22169903Y-11430000D01*
X13970000Y-8890000D02*
X16510000Y-11430000D01*
X13970000Y-2540000D02*
X13970000Y-8890000D01*
X12065000Y-635000D02*
X13970000Y-2540000D01*
X-635000Y-635000D02*
X12065000Y-635000D01*
X25400000Y-22860000D02*
X26925000Y-22860000D01*
X-3810000Y2540000D02*
X-635000Y-635000D01*
X-5080000Y2540000D02*
X-3810000Y2540000D01*
X26925000Y-22860000D02*
X29720000Y-22860000D01*
%TO.N,Net-(D1-Pad1)*%
X36830000Y-13615000D02*
X35560000Y-12345000D01*
X35240000Y-29940000D02*
X36830000Y-28350000D01*
X36830000Y-22860000D02*
X36830000Y-13615000D01*
X36830000Y-28350000D02*
X36830000Y-22860000D01*
X33020000Y-22860000D02*
X36830000Y-22860000D01*
%TO.N,Net-(D3-Pad2)*%
X-20320000Y-28510000D02*
X-19050000Y-28510000D01*
X-19050000Y-28510000D02*
X-17780000Y-28510000D01*
X-21525000Y-25910000D02*
X-21525000Y-28510000D01*
X-24130000Y-25400000D02*
X-22035000Y-25400000D01*
X-22035000Y-25400000D02*
X-21525000Y-25910000D01*
X-21525000Y-28510000D02*
X-20320000Y-28510000D01*
X-21590000Y-28510000D02*
X-21525000Y-28510000D01*
X-24170000Y-25440000D02*
X-24130000Y-25400000D01*
X-27305000Y-25440000D02*
X-24170000Y-25440000D01*
%TO.N,Net-(D3-Pad1)*%
X-24170000Y-27900000D02*
X-24130000Y-27940000D01*
X-26630000Y-30440000D02*
X-24130000Y-27940000D01*
X-27305000Y-30440000D02*
X-26630000Y-30440000D01*
%TO.N,Net-(D4-Pad2)*%
X10795000Y-19050000D02*
X14605000Y-19050000D01*
X17145000Y-20320000D02*
X15875000Y-20320000D01*
X15875000Y-20320000D02*
X14605000Y-19050000D01*
X19130000Y-20320000D02*
X17145000Y-20320000D01*
X20320000Y-21510000D02*
X19130000Y-20320000D01*
%TO.N,Net-(D4-Pad1)*%
X20280000Y-17780000D02*
X20320000Y-17820000D01*
X18415000Y-16510000D02*
X17145000Y-17780000D01*
X20320000Y-16510000D02*
X18415000Y-16510000D01*
%TO.N,Net-(D5-Pad2)*%
X19415000Y15255000D02*
X19430000Y15240000D01*
X19415000Y17465000D02*
X19415000Y15255000D01*
%TO.N,Net-(D6-Pad1)*%
X23860000Y12700000D02*
X26670000Y12700000D01*
X21615000Y18415000D02*
X27915000Y18415000D01*
X26670000Y12700000D02*
X27940000Y13970000D01*
X27915000Y13995000D02*
X27915000Y18415000D01*
X27940000Y13970000D02*
X27915000Y13995000D01*
X28550000Y19050000D02*
X27915000Y18415000D01*
X34290000Y19050000D02*
X28550000Y19050000D01*
%TO.N,Net-(D7-Pad2)*%
X-12610000Y30990000D02*
X-12460000Y31140000D01*
X-15240000Y30990000D02*
X-12610000Y30990000D01*
X-12840000Y21210000D02*
X-12460000Y21590000D01*
X-15240000Y21210000D02*
X-12840000Y21210000D01*
X-15019999Y39590001D02*
X-17249990Y37360010D01*
X-5300001Y39590001D02*
X-15019999Y39590001D01*
X-1270000Y35560000D02*
X-5300001Y39590001D01*
X-17249990Y31219990D02*
X-17020000Y30990000D01*
X-15240000Y30990000D02*
X-17020000Y30990000D01*
X-17249990Y23219990D02*
X-15240000Y21210000D01*
X-17249990Y32280010D02*
X-17249990Y23219990D01*
X-17249990Y37360010D02*
X-17249990Y32280010D01*
X-17249990Y32280010D02*
X-17249990Y31219990D01*
%TO.N,/SCL*%
X1980000Y10720000D02*
X2540000Y10160000D01*
X0Y10720000D02*
X1980000Y10720000D01*
X2540000Y10160000D02*
X7620000Y10160000D01*
X0Y10271362D02*
X-1127362Y9144000D01*
X0Y10720000D02*
X0Y10271362D01*
X-1127362Y9144000D02*
X-3810000Y9144000D01*
X-5080000Y7874000D02*
X-5080000Y7620000D01*
X-3810000Y9144000D02*
X-5080000Y7874000D01*
X9880000Y7900000D02*
X11430000Y7900000D01*
X7620000Y10160000D02*
X9880000Y7900000D01*
%TO.N,/SDA*%
X-5080000Y5080000D02*
X-3810000Y5080000D01*
X0Y2260000D02*
X-990000Y2260000D01*
X-990000Y2260000D02*
X-3810000Y5080000D01*
X2260000Y2260000D02*
X2540000Y2540000D01*
X0Y2260000D02*
X2260000Y2260000D01*
D39*
X15240000Y1905000D02*
X18210000Y1905000D01*
D37*
X2540000Y2540000D02*
X3175000Y2540000D01*
X14100010Y765010D02*
X15240000Y1905000D01*
X4949990Y765010D02*
X14100010Y765010D01*
X3175000Y2540000D02*
X4949990Y765010D01*
%TO.N,Net-(J3-Pad2)*%
X-10440000Y-31470000D02*
X-10160000Y-31750000D01*
X-10440000Y-29464000D02*
X-10440000Y-31470000D01*
X-10440000Y-26540000D02*
X-10255000Y-26355000D01*
X-10440000Y-29464000D02*
X-10440000Y-26540000D01*
%TO.N,Net-(J3-Pad1)*%
X-7340000Y-31470000D02*
X-7620000Y-31750000D01*
X-7340000Y-29464000D02*
X-7340000Y-31470000D01*
X-7340000Y-28220000D02*
X-8255000Y-27305000D01*
X-7340000Y-29464000D02*
X-7340000Y-28220000D01*
%TO.N,/MOSI*%
X-5080000Y-20320000D02*
X2540000Y-20320000D01*
X5435000Y-20320000D02*
X2540000Y-20320000D01*
%TO.N,/SCK*%
X-5080000Y-15115998D02*
X-5080000Y-15240000D01*
X-3404001Y-13439999D02*
X-5080000Y-15115998D01*
X179912Y-13439999D02*
X-3404001Y-13439999D01*
X1189923Y-14450010D02*
X179912Y-13439999D01*
X1750010Y-14450010D02*
X1189923Y-14450010D01*
X2540000Y-15240000D02*
X1750010Y-14450010D01*
X2540000Y-15240000D02*
X5080000Y-15240000D01*
%TO.N,/MISO*%
X-5586Y-17780000D02*
X-2793Y-17782793D01*
X-5080000Y-17780000D02*
X-5586Y-17780000D01*
X0Y-10160000D02*
X2540000Y-12700000D01*
X2540000Y-12700000D02*
X5080000Y-12700000D01*
%TO.N,/TX*%
X-17780000Y2540000D02*
X-12700000Y2540000D01*
%TO.N,/RX*%
X-17780000Y5080000D02*
X-12700000Y5080000D01*
%TO.N,Net-(JP1-Pad2)*%
X33340000Y-29940000D02*
X32889990Y-29489990D01*
X32889990Y-29489990D02*
X32889990Y-27809990D01*
X32889990Y-27809990D02*
X31242000Y-26162000D01*
X31242000Y-26162000D02*
X31242000Y-21336000D01*
X30226000Y-20320000D02*
X28070001Y-20320000D01*
X31242000Y-21336000D02*
X30226000Y-20320000D01*
%TO.N,Net-(JP2-Pad2)*%
X19050000Y30160000D02*
X19050000Y32919999D01*
%TO.N,Net-(Q1-Pad1)*%
X-7340000Y-24490000D02*
X-8255000Y-25405000D01*
X-7340000Y-22860000D02*
X-7340000Y-24490000D01*
%TO.N,Net-(Q3-Pad3)*%
X35205000Y-8890000D02*
X35560000Y-9245000D01*
X33385000Y-8890000D02*
X35205000Y-8890000D01*
%TO.N,Net-(Q3-Pad1)*%
X31385000Y-9890000D02*
X32290000Y-10795000D01*
X31385000Y-9840000D02*
X31385000Y-9890000D01*
X32290000Y-10795000D02*
X36830000Y-10795000D01*
X37335010Y-10289990D02*
X37335010Y-4950010D01*
X36830000Y-10795000D02*
X37335010Y-10289990D01*
X36830000Y-4445000D02*
X36830000Y-1550000D01*
X37335010Y-4950010D02*
X36830000Y-4445000D01*
%TO.N,Net-(Q4-Pad4)*%
X-17749990Y-25430010D02*
X-17749990Y-23560000D01*
X-16865000Y-26315000D02*
X-17749990Y-25430010D01*
X-16865000Y-26315000D02*
X-15240000Y-26315000D01*
D39*
%TO.N,Net-(Q5-Pad4)*%
X9706001Y-23699999D02*
X5564999Y-23699999D01*
X10071002Y-24065000D02*
X9706001Y-23699999D01*
X5564999Y-23699999D02*
X4725000Y-22860000D01*
X10795000Y-24065000D02*
X10071002Y-24065000D01*
D37*
%TO.N,Net-(Q6-Pad1)*%
X19415000Y21505000D02*
X19330000Y21590000D01*
X19415000Y19365000D02*
X19415000Y21505000D01*
X20740000Y21590000D02*
X21615000Y20715000D01*
X19330000Y21590000D02*
X20740000Y21590000D01*
%TO.N,Net-(Q7-Pad2)*%
X21615000Y13895000D02*
X21860000Y13650000D01*
X21615000Y16115000D02*
X21615000Y13895000D01*
%TO.N,Net-(Q9-Pad1)*%
X-5360000Y18175000D02*
X-5360000Y19050000D01*
X-6670406Y16864594D02*
X-5360000Y18175000D01*
X-9439991Y16864594D02*
X-6670406Y16864594D01*
X-9890000Y17314603D02*
X-9439991Y16864594D01*
%TO.N,/LCD_BLU*%
X-10440000Y-22860000D02*
X-12700000Y-22860000D01*
%TO.N,/enc_clk*%
X-14729002Y0D02*
X-12700000Y0D01*
X-17271795Y-2542793D02*
X-14729002Y0D01*
X-20317207Y-2542793D02*
X-17271795Y-2542793D01*
X11137500Y-31737500D02*
X11150000Y-31750000D01*
X11137500Y-29210000D02*
X11137500Y-31737500D01*
X11150000Y-32154002D02*
X11150000Y-31750000D01*
X8508992Y-34795010D02*
X11150000Y-32154002D01*
X-11316352Y-34795010D02*
X8508992Y-34795010D01*
X-13088569Y-33022793D02*
X-11316352Y-34795010D01*
X-20317207Y-33022793D02*
X-13088569Y-33022793D01*
%TO.N,/enc_dt*%
X-12700000Y-2540000D02*
X-14605000Y-2540000D01*
X29210000Y-35840000D02*
X29210000Y-36490000D01*
X28309990Y-37390010D02*
X29210000Y-36490000D01*
X11430000Y-26670000D02*
X11137500Y-26670000D01*
X12700000Y-27940000D02*
X11430000Y-26670000D01*
X12700000Y-32895998D02*
X12700000Y-27940000D01*
X9135999Y-36459999D02*
X12700000Y-32895998D01*
X-13705001Y-36459999D02*
X9135999Y-36459999D01*
X-14605000Y-35560000D02*
X-13705001Y-36459999D01*
X10935997Y-36459999D02*
X9135999Y-36459999D01*
X11866008Y-37390010D02*
X10935997Y-36459999D01*
X28309990Y-37390010D02*
X11866008Y-37390010D01*
%TO.N,/enc_sw*%
X21602500Y-25120000D02*
X21590000Y-25107500D01*
X21577500Y-25107500D02*
X21590000Y-25120000D01*
X19050000Y-25107500D02*
X21577500Y-25107500D01*
X-3249913Y0D02*
X-5080000Y0D01*
X-1214903Y-2035010D02*
X-3249913Y0D01*
X10925010Y-2035010D02*
X-1214903Y-2035010D01*
X15930097Y-12830010D02*
X12065000Y-8964913D01*
X21590000Y-12830010D02*
X15930097Y-12830010D01*
X12065000Y-3175000D02*
X10925010Y-2035010D01*
X12065000Y-8964913D02*
X12065000Y-3175000D01*
X21590000Y-12830010D02*
X22860000Y-14100010D01*
X22860000Y-23850000D02*
X21590000Y-25120000D01*
X22860000Y-14100010D02*
X22860000Y-23850000D01*
%TO.N,Net-(R14-Pad1)*%
X-19050000Y10160000D02*
X-18060000Y10160000D01*
X-20320000Y11430000D02*
X-19050000Y10160000D01*
X-26820000Y11430000D02*
X-20320000Y11430000D01*
%TO.N,/ambient*%
X-12700000Y-20320000D02*
X-13335000Y-20955000D01*
X-15240000Y-23215000D02*
X-15240000Y-20955000D01*
X-13335000Y-20955000D02*
X-15240000Y-20955000D01*
X9654990Y10665010D02*
X10440000Y9880000D01*
X9654990Y15110010D02*
X9654990Y10665010D01*
X7620000Y17145000D02*
X9654990Y15110010D01*
X-11519601Y16014602D02*
X-10569911Y16014602D01*
X-24979998Y-20955000D02*
X-32515010Y-13419988D01*
X10440000Y9880000D02*
X11430000Y9880000D01*
X-10569911Y16014602D02*
X-10019893Y15464584D01*
X-32515010Y7620000D02*
X-32459913Y7620000D01*
X-3810000Y17145000D02*
X7620000Y17145000D01*
X-32459913Y7620000D02*
X-30610010Y9469903D01*
X-15240000Y-20955000D02*
X-24979998Y-20955000D01*
X-30610010Y9469903D02*
X-30610010Y15184903D01*
X-27964912Y17830001D02*
X-13335000Y17830001D01*
X-32515010Y-13419988D02*
X-32515010Y7620000D01*
X-30610010Y15184903D02*
X-27964912Y17830001D01*
X-13335000Y17830001D02*
X-11519601Y16014602D01*
X-10019893Y15464584D02*
X-5490416Y15464584D01*
X-5490416Y15464584D02*
X-3810000Y17145000D01*
%TO.N,/lamp*%
X-5080000Y-22860000D02*
X1625000Y-22860000D01*
%TO.N,/audio*%
X8890000Y19050000D02*
X2540000Y19050000D01*
X2540000Y19050000D02*
X3810000Y19050000D01*
X-2260000Y19050000D02*
X2540000Y19050000D01*
X-3810000Y-25400000D02*
X-5080000Y-25400000D01*
X2540000Y-31750000D02*
X-3810000Y-25400000D01*
X8890000Y-31750000D02*
X2540000Y-31750000D01*
%TO.N,Net-(JP3-Pad2)*%
X-5690000Y31140000D02*
X-5080000Y31750000D01*
X-7860000Y31140000D02*
X-7010000Y31140000D01*
X-6375000Y31140000D02*
X-5690000Y31140000D01*
X-6375000Y26975000D02*
X-6375000Y31140000D01*
X-5080000Y25680000D02*
X-6375000Y26975000D01*
X-7010000Y31140000D02*
X-6375000Y31140000D01*
%TO.N,Net-(JP3-Pad1)*%
X-6070000Y21590000D02*
X-5080000Y22580000D01*
X-7860000Y21590000D02*
X-6070000Y21590000D01*
X-7890000Y21560000D02*
X-7860000Y21590000D01*
X-7890000Y18264603D02*
X-7890000Y21560000D01*
%TO.N,Net-(JP4-Pad2)*%
X11430000Y4150000D02*
X12405000Y3175000D01*
X11430000Y4800000D02*
X11430000Y4150000D01*
X12405000Y3175000D02*
X13970000Y3175000D01*
D39*
X18179992Y3205008D02*
X18210000Y3175000D01*
X14000008Y3205008D02*
X18179992Y3205008D01*
X13970000Y3175000D02*
X14000008Y3205008D01*
D37*
%TO.N,Net-(R25-Pad1)*%
X24130000Y-32740000D02*
X24130000Y-30480000D01*
X24130000Y-33390000D02*
X24130000Y-32740000D01*
X23230000Y-34290000D02*
X24130000Y-33390000D01*
X15915000Y-34290000D02*
X23230000Y-34290000D01*
X14250000Y-32625000D02*
X15915000Y-34290000D01*
X14250000Y-31750000D02*
X14250000Y-32625000D01*
%TO.N,Net-(R24-Pad1)*%
X26670000Y-32740000D02*
X29210000Y-32740000D01*
X29210000Y-32740000D02*
X29210000Y-30480000D01*
%TO.N,Net-(R26-Pad2)*%
X21590000Y-30480000D02*
X21590000Y-28220000D01*
X21590000Y-30480000D02*
X21590000Y-32740000D01*
%TO.N,Net-(J4-Pad4)*%
X8535000Y-19445000D02*
X9525000Y-18455000D01*
X8535000Y-20320000D02*
X8535000Y-19445000D01*
X9525000Y-17145000D02*
X7620000Y-15240000D01*
X9525000Y-18455000D02*
X9525000Y-17145000D01*
%TO.N,Net-(J2-Pad3)*%
X4090000Y7620000D02*
X5080000Y8610000D01*
X2540000Y7620000D02*
X4090000Y7620000D01*
%TD*%
M02*
