M48
; DRILL file {KiCad 5.1.10-88a1d61d58~90~ubuntu20.04.1} date Sun Mar 27 14:13:51 2022
; FORMAT={3:3/ absolute / metric / suppress leading zeros}
; #@! TF.CreationDate,2022-03-27T14:13:51+02:00
; #@! TF.GenerationSoftware,Kicad,Pcbnew,5.1.10-88a1d61d58~90~ubuntu20.04.1
FMAT,2
METRIC,TZ
T1C0.800
T2C1.000
T3C1.100
T4C1.190
T5C1.300
T6C3.200
%
G90
G05
T1
X-17780Y-11430
X-17780Y-16310
X-12700Y7620
X-12700Y5080
X-12700Y2540
X-12700Y0
X-12700Y-2540
X-12700Y-5080
X-12700Y-7620
X-12700Y-10160
X-12700Y-12700
X-12700Y-15240
X-12700Y-17780
X-12700Y-20320
X-12700Y-22860
X-12700Y-25400
X-5080Y7620
X-5080Y5080
X-5080Y2540
X-5080Y0
X-5080Y-2540
X-5080Y-5080
X-5080Y-7620
X-5080Y-10160
X-5080Y-12700
X-5080Y-15240
X-5080Y-17780
X-5080Y-20320
X-5080Y-22860
X-5080Y-25400
X-3175Y29210
X-3175Y24210
X5080Y28670
X5080Y26670
X21590Y35560
X25090Y35560
X33020Y12700
X35020Y12700
T2
X-33838Y10823
X-30480Y20955
X-30480Y-10160
X-30480Y-20320
X-22225Y5080
X-22225Y-5080
X-20317Y-2543
X-20317Y-33023
X-14605Y-2540
X-14605Y-35560
X-8890Y10770
X-2540Y12700
X-2540Y-15240
X-3Y-17783
X0Y-10160
X635Y20955
X5080Y-12700
X5080Y-15240
X5080Y-17780
X6985Y20955
X6985Y6985
X6985Y5080
X6985Y-5080
X7620Y-12700
X7620Y-15240
X7620Y-17780
X8890Y19050
X8890Y-31750
X12700Y-13970
X12700Y-35560
X27940Y-17780
X27940Y-26670
X29845Y39370
X29845Y21590
X34290Y-17800
X34290Y-25400
T3
X-26820Y15930
X-26820Y11430
X-20320Y15930
X-20320Y11430
T4
X-26670Y7620
X-26670Y5080
X-26670Y1270
X-26670Y-1270
X-24130Y-22860
X-24130Y-25400
X-24130Y-27940
X-17780Y7620
X-17780Y5080
X-17780Y2540
X-17780Y0
X-10160Y-31750
X-7620Y-31750
X2540Y10160
X2540Y7620
X2540Y5080
X2540Y2540
X17145Y-17780
X17145Y-20320
X17145Y-22860
X19050Y-30480
X21590Y-30480
X24130Y-30480
X26670Y-30480
X29210Y-30480
X34290Y30480
X34290Y27940
X34290Y21590
X34290Y19050
T5
X-1270Y35560
X3730Y35560
X10160Y35560
X15160Y35560
X27940Y6030
X27940Y-13970
T6
X-34290Y39370
X-34290Y-36830
X36830Y39370
X36830Y-36830
T2
G00X-29465Y35750
M15
G01X-29465Y33750
M16
G05
G00X-23765Y37750
M15
G01X-25765Y37750
M16
G05
G00X-23765Y31750
M15
G01X-25765Y31750
M16
G05
T0
M30
